<svg height="512" viewBox="0 0 32 32" width="512" xmlns="http://www.w3.org/2000/svg"><g id="Ikon"><path d="m27 6h-1v-1a3.0088 3.0088 0 0 0 -3-3h-18a3.0088 3.0088 0 0 0 -3 3v18a3.0088 3.0088 0 0 0 3 3h1v1a3.0088 3.0088 0 0 0 3 3h18a3.0088 3.0088 0 0 0 3-3v-18a3.0088 3.0088 0 0 0 -3-3zm-22 18a1.0029 1.0029 0 0 1 -1-1v-18a1.0029 1.0029 0 0 1 1-1h18a1.0029 1.0029 0 0 1 1 1v18a1.0029 1.0029 0 0 1 -1 1zm23 3a1.0029 1.0029 0 0 1 -1 1h-18a1.0029 1.0029 0 0 1 -1-1v-1h15a3.0088 3.0088 0 0 0 3-3v-15h1a1.0029 1.0029 0 0 1 1 1z"/><path d="m21 14a1 1 0 0 1 -1 1h-5v5a1 1 0 0 1 -2 0v-5h-5a1 1 0 0 1 0-2h5v-5a1 1 0 0 1 2 0v5h5a1 1 0 0 1 1 1z"/></g></svg>