<svg id="Layer_1" enable-background="new 0 0 800 800" viewBox="0 0 800 800" xmlns="http://www.w3.org/2000/svg"><g fill="#1c274c"><path d="m496.8 758.3h-193.6c-45.7 0-78.7 0-106-3.3-31.8-3.8-54.1-12.2-72.2-27.2-37.4-30.9-44.1-78.4-56.2-164.6l-14.1-100c-7.7-54.6-13.3-94.1-13-126.6.3-38.5 9.2-65.1 28.7-86.2 19.3-20.8 45.4-32.4 84.9-37.7 33.7-4.5 75.7-4.5 133.8-4.5h221.8c58.1 0 100.1 0 133.8 4.5 39.4 5.2 65.6 16.9 84.9 37.7 19.6 21.1 28.4 47.7 28.7 86.2.2 32.5-5.3 72-13 126.6l-14.1 100c-12.2 86.2-18.8 133.6-56.2 164.6-18.1 15-40.4 23.4-72.2 27.2-27.3 3.3-60.3 3.3-106 3.3zm-392.6-302 14.1 100c11.5 81.4 17 115.2 38.6 133 23 19 64.2 19 146.3 19h193.6c82.1 0 123.3 0 146.3-19 21.6-17.9 27.1-51.6 38.6-133l14.1-100c14.7-104.2 19.7-147.4-2.9-171.8-24.2-26.1-76.9-26.1-182-26.1h-221.8c-105.1 0-157.8 0-182 26.1-22.6 24.4-17.6 67.6-2.9 171.8z"/><path d="m676.7 237.7-49.2-8.6c2.4-13.4-1.3-27.1-10.1-37.6s-21.7-16.5-35.3-16.5h-364.2c-13.6 0-26.5 6-35.3 16.4s-12.5 24.1-10.1 37.6l-49.3 8.6c-4.9-28 2.8-56.6 21.1-78.4s45.1-34.3 73.6-34.3h364.1c28.5 0 55.3 12.5 73.6 34.3 18.3 21.9 26 50.4 21.1 78.5z"/><path d="m191.8 152.7c-1-9.5-1.6-14.3-1.6-19.2-.1-47 35.1-86.3 81.9-91.3 4.9-.5 9.7-.5 19.2-.5h217.3c9.6 0 14.4 0 19.2.5 46.8 5 82 44.3 81.9 91.3 0 4.9-.5 9.7-1.6 19.2l-49.7-5.4c.8-7.2 1.3-11.6 1.3-13.8 0-21.4-16-39.2-37.2-41.5-2.2-.2-6.6-.2-13.9-.2h-217.2c-7.3 0-11.7 0-13.9.2-21.3 2.3-37.3 20.1-37.2 41.5 0 2.2.5 6.6 1.3 13.8z"/><path d="m550 458.3c-41.4 0-75-33.6-75-75s33.6-75 75-75 75 33.6 75 75-33.6 75-75 75zm0-100c-13.8 0-25 11.2-25 25s11.2 25 25 25 25-11.2 25-25-11.2-25-25-25z"/><path d="m666.6 691.7c-5.2 0-10.4-1.6-14.9-5l-96.1-71.6c-23-17.2-58.3-18.8-83.8-4l-8.9 5.2c-15.8 9.2-34.9 13.5-53.8 12.1-19.1-1.4-37.3-8.5-51.2-20l-127.9-105.8c-16.8-13.9-45.1-14.6-63.1-1.6l-44.1 32c-11.2 8.1-26.8 5.6-34.9-5.6s-5.6-26.8 5.6-34.9l44.1-32c36.5-26.4 89.9-24.9 124.3 3.6l127.9 105.9c12.3 10.2 33.4 11.6 48 3.1l8.9-5.2c42.7-24.9 99.8-21.9 138.8 7.1l96.1 71.6c11.1 8.2 13.4 23.9 5.1 35-4.9 6.6-12.4 10.1-20.1 10.1z"/></g></svg>