<?xml version="1.0" encoding="UTF-8"?>
<svg id="Layer_1" xmlns="http://www.w3.org/2000/svg" version="1.1" viewBox="0 0 24 24">
  <!-- Generator: Adobe Illustrator 30.3.0, SVG Export Plug-In . SVG Version: 2.1.3 Build 182)  -->
  <defs>
    <style>
      .st0 {
        fill: #fff;
      }
    </style>
  </defs>
  <path class="st0" d="M5,4h4.27c-.93,1.24-1.91,2.95-2.42,5.05-.11.44.09.9.49,1.11.07.04,1.45.78,3.16,1.1v10.23c0,.83.67,1.5,1.5,1.5s1.5-.67,1.5-1.5v-10.25c1.72-.35,3.11-1.15,3.18-1.19.38-.22.57-.66.47-1.09-.49-2.07-1.46-3.74-2.39-4.97h4.24c.83,0,1.5-.67,1.5-1.5s-.67-1.5-1.5-1.5H5c-.83,0-1.5.67-1.5,1.5s.67,1.5,1.5,1.5h0Z"/>
</svg>