<?xml version="1.0" encoding="UTF-8"?>
<svg id="Layer_1" xmlns="http://www.w3.org/2000/svg" version="1.1" viewBox="0 0 512 512">
  <!-- Generator: Adobe Illustrator 30.3.0, SVG Export Plug-In . SVG Version: 2.1.3 Build 182)  -->
  <defs>
    <style>
      .st0 {
        fill: #fff;
      }
    </style>
  </defs>
  <g id="Layer_16">
    <path class="st0" d="M19,161c-.69,0-1.38-.04-2.07-.11-10.43-1.14-17.96-10.52-16.82-20.95,0,0,0,0,0,0,1.22-11.24,2.69-22,4.51-32.95v-.18C13.41,57.25,57.38,13.28,106.93,4.52h.19C118.06,2.66,128.84,1.19,140.07,0c10.43-1.13,19.81,6.41,20.93,16.85,1.13,10.43-6.41,19.81-16.85,20.93-10.47,1.14-20.52,2.51-30.71,4.2-16.32,2.88-32.68,11.86-46.08,25.26s-22.37,29.76-25.28,46.08c-1.69,10.17-3.09,20.22-4.2,30.68-1.02,9.66-9.17,17-18.89,17Z"/>
    <path class="st0" d="M492.94,161.16c-9.69,0-17.82-7.31-18.87-16.95-1.13-10.48-2.5-20.53-4.19-30.7-2.88-16.33-11.88-32.69-25.29-46.09s-29.76-22.42-46.08-25.28c-10.19-1.7-20.24-3.07-30.71-4.2-10.43-1.13-17.97-10.5-16.85-20.93,1.13-10.43,10.5-17.97,20.93-16.85,11.23,1.21,22,2.69,32.95,4.51h.19c49.56,8.79,93.53,52.76,102.28,102.33v.19c1.82,10.93,3.3,21.71,4.51,33,1.09,10.4-6.43,19.72-16.82,20.86-.68.08-1.37.11-2.06.11h0Z"/>
    <path class="st0" d="M369.82,512.14c-10.49-.02-18.98-8.55-18.96-19.04.02-9.69,7.33-17.81,16.96-18.85,10.49-1.14,20.54-2.51,30.7-4.2,16.33-2.91,32.69-11.88,46.09-25.29s22.39-29.76,25.27-46.08c1.69-10.18,3.06-20.22,4.19-30.7,1.13-10.43,10.5-17.97,20.93-16.85s17.97,10.5,16.85,20.93h0c-1.21,11.24-2.69,22-4.51,32.95v.19c-8.75,49.55-52.72,93.52-102.28,102.27h-.18c-10.93,1.81-21.71,3.29-33,4.51-.68.08-1.37.13-2.06.15Z"/>
    <path class="st0" d="M142.14,512c-.69,0-1.38-.04-2.07-.12-11.25-1.22-22-2.69-32.95-4.51h-.19c-49.55-8.83-93.52-52.8-102.28-102.37v-.19c-1.85-10.91-3.32-21.68-4.54-32.93-1.13-10.43,6.41-19.81,16.85-20.93,10.43-1.13,19.81,6.41,20.93,16.85,1.14,10.49,2.51,20.53,4.2,30.71,2.91,16.32,11.91,32.68,25.28,46.08s29.76,22.42,46.08,25.28c10.18,1.69,20.22,3.07,30.71,4.2,10.44,1.07,18.03,10.41,16.95,20.85-1,9.71-9.19,17.08-18.95,17.05l-.02.04Z"/>
    <path class="st0" d="M260.06,405.9c-23.31.58-69.1-3-84.07-6.6-10.2-2.15-19.79-8.09-27-16.35-7.14-8.06-11.62-18.12-12.85-28.81v-.32c-.78-7.71-1.02-15.47-.72-23.21,0,0-.57-6.83.72-19.23v-.31c1.09-10.18,5.65-19.68,12.9-26.9,7.29-7.3,16.85-11.9,27.1-13.05,15-1.59,60.71-2.46,83.93-2.46s60.5.87,75.51,2.46c10.25,1.15,19.81,5.75,27.1,13.05,7.26,7.23,11.81,16.73,12.9,26.91v.31c.74,6.38,1.12,12.79,1.13,19.21.04,7.77-.34,15.53-1.12,23.26v.31c-1.23,10.7-5.73,20.77-12.87,28.83-7.23,8.26-16.82,14.2-27,16.35-15,3.37-52.35,6.71-75.66,6.55h0Z"/>
    <circle class="st0" cx="254.47" cy="178.63" r="72.59"/>
  </g>
</svg>