<svg viewBox="0 0 512 512" xmlns="http://www.w3.org/2000/svg"><g id="Layer_16" data-name="Layer 16"><path d="m19 161a20.5 20.5 0 0 1 -2.07-.11 19 19 0 0 1 -16.82-20.96c1.22-11.24 2.69-22 4.51-32.95v-.18c8.79-49.55 52.76-93.52 102.31-102.28h.19c10.94-1.86 21.72-3.33 32.95-4.52a19 19 0 1 1 4.09 37.78c-10.47 1.14-20.52 2.51-30.71 4.2-16.32 2.88-32.68 11.86-46.08 25.26s-22.37 29.76-25.28 46.08c-1.69 10.17-3.09 20.22-4.2 30.68a19 19 0 0 1 -18.89 17z"/><path d="m492.94 161.16a19 19 0 0 1 -18.87-16.95c-1.13-10.48-2.5-20.53-4.19-30.7-2.88-16.33-11.88-32.69-25.29-46.09s-29.76-22.42-46.08-25.28c-10.19-1.7-20.24-3.07-30.71-4.2a19 19 0 0 1 4.09-37.78c11.23 1.21 22 2.69 32.95 4.51h.19c49.56 8.79 93.53 52.76 102.28 102.33v.19c1.82 10.93 3.3 21.71 4.51 33a19 19 0 0 1 -16.82 20.86 18.18 18.18 0 0 1 -2.06.11z"/><path d="m369.82 512.14a19 19 0 0 1 -2-37.89c10.49-1.14 20.54-2.51 30.7-4.2 16.33-2.91 32.69-11.88 46.09-25.29s22.39-29.76 25.27-46.08c1.69-10.18 3.06-20.22 4.19-30.7a19 19 0 1 1 37.78 4.09c-1.21 11.24-2.69 22-4.51 32.95v.19c-8.75 49.55-52.72 93.52-102.28 102.27h-.18c-10.93 1.81-21.71 3.29-33 4.51a20.5 20.5 0 0 1 -2.06.15z"/><path d="m142.14 512a18.22 18.22 0 0 1 -2.07-.12c-11.25-1.22-22-2.69-32.95-4.51h-.19c-49.55-8.83-93.52-52.8-102.28-102.37v-.19c-1.85-10.91-3.32-21.68-4.54-32.93a19 19 0 0 1 37.78-4.09c1.14 10.49 2.51 20.53 4.2 30.71 2.91 16.32 11.91 32.68 25.28 46.08s29.76 22.42 46.08 25.28c10.18 1.69 20.22 3.07 30.71 4.2a19 19 0 0 1 -2 37.9z"/><path d="m260.06 405.9c-23.31.58-69.1-3-84.07-6.6-10.2-2.15-19.79-8.09-27-16.35a52.5 52.5 0 0 1 -12.85-28.81v-.32a166.93 166.93 0 0 1 -.72-23.21s-.57-6.83.72-19.23v-.31a44.68 44.68 0 0 1 12.9-26.9 45.43 45.43 0 0 1 27.1-13.05c15-1.59 60.71-2.46 83.93-2.46s60.5.87 75.51 2.46a45.41 45.41 0 0 1 27.1 13.05 44.68 44.68 0 0 1 12.9 26.91v.31a168.86 168.86 0 0 1 1.13 19.21 221.17 221.17 0 0 1 -1.12 23.26v.31a52.53 52.53 0 0 1 -12.87 28.83c-7.23 8.26-16.82 14.2-27 16.35-15 3.37-52.35 6.71-75.66 6.55z"/><circle cx="254.47" cy="178.63" r="72.59"/></g></svg>