<?xml version="1.0" encoding="UTF-8"?>
<!-- Generator: Adobe Illustrator 24.3.0, SVG Export Plug-In . SVG Version: 6.00 Build 0)  -->
<svg xmlns="http://www.w3.org/2000/svg" xmlns:xlink="http://www.w3.org/1999/xlink" version="1.1" id="Capa_1" x="0px" y="0px" viewBox="0 0 512 512" style="enable-background:new 0 0 512 512;" xml:space="preserve" width="512" height="512">
<g>
	<g id="Page-1_9_">
		<g id="finance_and_pointers_export_9_" transform="translate(-536.000000, -540.000000)">
			<path id="cards_x2C_-transfer_x2C_-currency_x2C_-money_x2C_-bank_x2C_-transaction" d="M807.059,871.294v105.412     c0,24.95-20.226,45.176-45.177,45.176H581.176c-24.95,0-45.176-20.226-45.176-45.176V871.294     c0-24.95,20.226-45.176,45.176-45.176h180.706C786.833,826.118,807.059,846.344,807.059,871.294z M776.941,886.353v-15.059     c0-8.317-6.742-15.059-15.059-15.059H581.176c-8.317,0-15.059,6.742-15.059,15.059v15.059H776.941z M566.118,916.471v60.235     c0,8.317,6.742,15.059,15.059,15.059h180.706c8.317,0,15.059-6.742,15.059-15.059v-60.235H566.118z M1048,615.294v105.412     c0,24.95-20.226,45.176-45.176,45.176H822.118c-24.95,0-45.177-20.226-45.177-45.176V615.294     c0-24.95,20.226-45.176,45.177-45.176h180.706C1027.774,570.118,1048,590.344,1048,615.294z M1017.882,615.294     c0-8.317-6.742-15.059-15.059-15.059H822.118c-8.317,0-15.059,6.742-15.059,15.059v15.059h210.823V615.294z M807.059,660.471     v60.235c0,8.317,6.742,15.059,15.059,15.059h180.706c8.317,0,15.059-6.742,15.059-15.059v-60.235H807.059z M980.235,870.002     v38.939c0,45.742-37.081,82.824-82.824,82.824h-30.118c-8.317,0-15.059-6.742-15.059-15.059s6.742-15.059,15.059-15.059h30.118     c29.108,0,52.706-23.597,52.706-52.706v-38.939l-11.94,11.94c-5.88,5.881-15.415,5.881-21.296,0     c-5.881-5.88-5.881-15.415,0-21.296l37.647-37.647c5.88-5.881,15.415-5.881,21.296,0l37.647,37.647     c5.881,5.881,5.881,15.415,0,21.296c-5.88,5.881-15.415,5.881-21.296,0L980.235,870.002L980.235,870.002z M603.765,721.998     v-38.939c0-45.742,37.081-82.824,82.824-82.824h30.118c8.317,0,15.059,6.742,15.059,15.059s-6.742,15.059-15.059,15.059h-30.118     c-29.108,0-52.706,23.597-52.706,52.706v38.939l11.94-11.94c5.88-5.881,15.415-5.881,21.296,0c5.881,5.88,5.881,15.415,0,21.296     l-37.647,37.647c-5.88,5.881-15.415,5.881-21.296,0l-37.647-37.647c-5.881-5.881-5.881-15.415,0-21.296     c5.88-5.881,15.415-5.881,21.296,0L603.765,721.998z"/>
		</g>
	</g>
</g>















</svg>
