<svg id="Layer_1" enable-background="new 0 0 800 800" viewBox="0 0 800 800" xmlns="http://www.w3.org/2000/svg"><g fill="#1c274c"><path d="m400 658.3c-81.1 0-162.3-11.2-241.1-33.5-35.1-9.9-62.8-35.6-76-70.5-13.4-35.5-9.3-75.7 11.1-107.5l37.2-57.9c16.7-25 18.9-60.6 18.9-88.8 0-68.9 25.9-133.7 72.9-182.5 47.2-49 110.1-76 177.1-76 66.9 0 129.8 27 177.1 76 46.9 48.7 72.8 113.4 72.9 182.1.5 17.3 4.8 66.3 19.3 89.7l36.8 57.3c20.4 31.8 24.6 72 11.1 107.5-13.2 34.9-40.9 60.6-76 70.5-79 22.4-160.2 33.6-241.3 33.6zm-227.2-241.7-36.8 57.2c-12.1 18.8-14.4 41.7-6.4 62.7 7.5 19.9 23.2 34.6 42.9 40.1 148.8 42.1 306.2 42.1 455 0 19.7-5.6 35.3-20.2 42.9-40.1 8-21.1 5.6-43.9-6.4-62.7l-37.2-57.8c-24.3-39.2-26.7-107.6-26.8-115.2v-.6c0-115-89.7-208.5-200-208.5s-200 93.5-200 208.5c0 35.2-3.1 80.2-27.2 116.4z"/><path d="m400 758.3c-77.7 0-147.4-46.7-173.4-116.2-4.8-12.9 1.7-27.3 14.6-32.2 12.9-4.8 27.3 1.7 32.2 14.6 18.8 50.1 69.7 83.8 126.6 83.8s107.8-33.7 126.6-83.8c4.8-12.9 19.3-19.5 32.2-14.6 12.9 4.8 19.5 19.3 14.6 32.2-26 69.5-95.7 116.2-173.4 116.2z"/><path d="m400 358.3c-13.8 0-25-11.2-25-25v-133.3c0-13.8 11.2-25 25-25s25 11.2 25 25v133.3c0 13.8-11.2 25-25 25z"/></g></svg>