<svg id="Layer_1" enable-background="new 0 0 800 800" viewBox="0 0 800 800" xmlns="http://www.w3.org/2000/svg"><g fill="#1c274c"><path d="m400 558.3c-68.9 0-125-56.1-125-125s56.1-125 125-125 125 56.1 125 125-56.1 125-125 125zm0-200c-41.4 0-75 33.6-75 75s33.6 75 75 75 75-33.6 75-75c0-41.3-33.6-75-75-75z"/><path d="m474.1 725h-148.2c-108.9 0-163.5 0-207.1-28.6-19-12.5-35.1-28.3-47.8-47-29.3-43.1-29.3-96.8-29.3-204 0-107.1 0-160.9 29.3-204 12.7-18.7 28.8-34.5 47.8-47 30.5-20 67.2-25.5 112.7-27.5h1.1c9.8 0 18.7-7.5 20.7-17.5 8.8-43.2 47.6-74.6 92.3-74.6h108.9c44.7 0 83.5 31.4 92.3 74.6 2 10 10.9 17.5 20.7 17.5h1.1c45.6 2 82.2 7.4 112.7 27.5 19 12.5 35.1 28.3 47.8 47 29.3 43.1 29.3 96.8 29.3 204 0 107.1 0 160.9-29.3 204-12.7 18.7-28.8 34.5-47.8 47-43.7 28.6-98.4 28.6-207.2 28.6zm-240.9-508c-44.4 2-68.8 7.4-87 19.3-13.5 8.9-24.9 20.1-33.9 33.3-20.6 30.3-20.6 79-20.6 175.8 0 96.9 0 145.5 20.6 175.8 9 13.2 20.4 24.4 33.9 33.3 31.1 20.5 80.8 20.5 179.7 20.5h148.1c98.9 0 148.6 0 179.7-20.4 13.5-8.9 24.9-20.1 33.9-33.3 20.6-30.3 20.6-79 20.6-175.8 0-96.9 0-145.5-20.6-175.8-9-13.2-20.4-24.4-33.9-33.3-18.1-11.9-42.6-17.3-87-19.3-33.3-.3-62.3-24.4-69.1-57.5-4.1-20-22.3-34.5-43.3-34.5h-108.8c-21 0-39.2 14.5-43.3 34.5-6.7 33.1-35.7 57.1-69 57.4z"/><path d="m633.3 358.3h-33.3c-13.8 0-25-11.2-25-25s11.2-25 25-25h33.3c13.8 0 25 11.2 25 25s-11.2 25-25 25z"/></g></svg>