<svg id="Layer_1" enable-background="new 0 0 800 800" viewBox="0 0 800 800" xmlns="http://www.w3.org/2000/svg"><path d="m216.7 425h-36.7c-46.8 0-72.5 0-94.6 13.5-12.3 7.5-22.7 18-30.3 30.3-13.5 22-13.5 47.8-13.5 94.6 0 70.1 0 105.3 18.4 135.3 10.3 16.7 24.5 31 41.3 41.3 30.1 18.4 65.2 18.4 135.3 18.4 46.8 0 72.5 0 94.6-13.5 12.3-7.5 22.7-18 30.3-30.3 13.5-22 13.5-47.8 13.5-94.6v-36.7c0-67.5 0-104.6-26.8-131.5-26.9-26.8-64.1-26.8-131.5-26.8zm108.3 195c0 37.7 0 58.4-6.1 68.4-3.4 5.6-8.2 10.3-13.8 13.8-10 6.1-30.8 6.1-68.4 6.1-60.7 0-91.2 0-109.2-11.1-10-6.2-18.6-14.7-24.8-24.8-11.1-18-11.1-48.5-11.1-109.2 0-37.7 0-58.4 6.1-68.4 3.4-5.6 8.2-10.3 13.8-13.8 10-6.1 30.8-6.1 68.4-6.1h36.7c58.2 0 84.4.5 96.1 12.2s12.2 37.9 12.2 96.1v36.8zm258.3-245h36.7c46.8 0 72.5 0 94.6-13.5 12.3-7.5 22.7-18 30.3-30.3 13.5-22 13.5-47.8 13.5-94.6 0-70.1 0-105.3-18.4-135.3-10.3-16.7-24.5-31-41.3-41.3-30.1-18.4-65.2-18.4-135.3-18.4-46.8 0-72.5 0-94.6 13.5-12.3 7.5-22.7 18-30.3 30.3-13.5 22.1-13.5 47.8-13.5 94.6v36.7c0 67.5 0 104.6 26.8 131.5 26.9 26.8 64.1 26.8 131.5 26.8zm-108.3-195c0-37.7 0-58.4 6.1-68.4 3.4-5.6 8.2-10.3 13.8-13.8 10-6.1 30.8-6.1 68.4-6.1 60.7 0 91.2 0 109.2 11.1 10 6.2 18.6 14.7 24.8 24.8 11.1 18 11.1 48.5 11.1 109.2 0 37.7 0 58.4-6.1 68.4-3.4 5.6-8.2 10.3-13.8 13.8-10 6.1-30.8 6.1-68.4 6.1h-36.7c-58.2 0-84.4-.5-96.1-12.2s-12.2-37.9-12.2-96.1v-36.8zm84.8 65.7c6.1 4.3 14.7 4.3 31.8 4.3s25.8 0 31.8-4.3c2.1-1.5 4-3.4 5.5-5.5 4.3-6.1 4.3-14.7 4.3-31.8 0-17.2 0-25.8-4.3-31.8-1.5-2.1-3.4-4-5.5-5.5-6.1-4.3-14.7-4.3-31.8-4.3s-25.8 0-31.8 4.3c-2.1 1.5-4 3.4-5.5 5.5-4.3 6.1-4.3 14.7-4.3 31.8 0 17.2 0 25.8 4.3 31.8 1.5 2.1 3.4 4 5.5 5.5zm-134.8 487.6c0 13.8 11.2 25 25 25s25-11.2 25-25v-100h-50zm208.3-258.3v-50h-66.7c-22.9 0-41.9 0-57.3 1.5-15.8 1.6-30.4 5.1-43.6 13.9-10 6.7-18.6 15.3-25.3 25.3-8.8 13.2-12.3 27.8-13.9 43.6-1.6 15.4-1.5 34.4-1.5 57.3h50c0-23.9 0-40 1.3-52.2 1.2-11.8 3.3-17.3 5.7-20.9 3-4.6 6.9-8.5 11.5-11.5 3.6-2.4 9.1-4.5 20.9-5.7 12.2-1.2 28.3-1.3 52.2-1.3zm74.5 193.1c-.5 8-1.5 11.9-2.6 14.5-4.2 10.2-12.3 18.3-22.5 22.5-2.6 1.1-6.5 2-14.5 2.6-8.3.6-18.9.6-34.8.6h-66.7v50h66.7c15.2 0 27.8 0 38.2-.7 10.6-.7 20.6-2.3 30.2-6.3 22.5-9.3 40.3-27.2 49.6-49.6 4-9.7 5.6-19.7 6.3-30.2.7-10.3.7-23 .7-38.2h-50c-.1 15.9-.1 26.6-.6 34.8zm25.5-243.1c-13.8 0-25 11.2-25 25v116.7h50v-116.7c0-13.8-11.2-25-25-25zm-402.1-369.8c-22-13.5-47.8-13.5-94.6-13.5-70.1 0-105.3 0-135.3 18.4-16.7 10.3-31 24.5-41.3 41.3-18.4 30.1-18.4 65.2-18.4 135.3 0 46.8 0 72.5 13.5 94.6 7.5 12.3 18 22.7 30.3 30.3 22 13.5 47.8 13.5 94.6 13.5h36.7c67.5 0 104.6 0 131.5-26.8 26.8-26.8 26.8-64 26.8-131.5v-36.8c0-46.8 0-72.5-13.5-94.6-7.5-12.2-18-22.7-30.3-30.2zm-6.2 161.5c0 58.2-.5 84.4-12.2 96.1s-37.9 12.2-96.1 12.2h-36.7c-37.7 0-58.4 0-68.4-6.1-5.6-3.4-10.3-8.2-13.8-13.8-6.1-10-6.1-30.8-6.1-68.4 0-60.7 0-91.2 11.1-109.2 6.2-10 14.7-18.6 24.8-24.8 18-11.1 48.5-11.1 109.2-11.1 37.7 0 58.4 0 68.4 6.1 5.6 3.4 10.3 8.2 13.8 13.8 6.1 10 6.1 30.8 6.1 68.4v36.8zm-84.8-45.7c-6.1-4.3-14.7-4.3-31.8-4.3-17.2 0-25.8 0-31.8 4.3-2.1 1.5-4 3.4-5.5 5.5-4.3 6.1-4.3 14.7-4.3 31.8 0 17.2 0 25.8 4.3 31.8 1.5 2.1 3.4 4 5.5 5.5 6.1 4.3 14.7 4.3 31.8 4.3 17.2 0 25.8 0 31.8-4.3 2.1-1.5 4-3.4 5.5-5.5 4.3-6.1 4.3-14.7 4.3-31.8 0-17.2 0-25.8-4.3-31.8-1.5-2.1-3.4-4-5.5-5.5zm0 383.3c-6.1-4.3-14.7-4.3-31.8-4.3-17.2 0-25.8 0-31.8 4.3-2.1 1.5-4 3.4-5.5 5.5-4.3 6.1-4.3 14.7-4.3 31.8s0 25.8 4.3 31.8c1.5 2.1 3.4 4 5.5 5.5 6.1 4.3 14.7 4.3 31.8 4.3 17.2 0 25.8 0 31.8-4.3 2.1-1.5 4-3.4 5.5-5.5 4.3-6.1 4.3-14.7 4.3-31.8s0-25.8-4.3-31.8c-1.5-2.1-3.4-4-5.5-5.5zm395 90.1c3.6-2.4 6.8-5.6 9.2-9.2 5.6-8.4 5.6-20.1 5.6-43.5s0-35.1-5.6-43.5c-2.4-3.6-5.6-6.8-9.2-9.2-8.4-5.6-20.1-5.6-43.5-5.6s-35.1 0-43.5 5.6c-3.6 2.4-6.8 5.6-9.2 9.2-5.6 8.4-5.6 20.1-5.6 43.5s0 35.1 5.6 43.5c2.4 3.6 5.6 6.8 9.2 9.2 8.4 5.6 20.1 5.6 43.5 5.6s35.1 0 43.5-5.6z" fill="#1c274c"/></svg>