<svg enable-background="new 0 0 32 32" viewBox="0 0 32 32" xmlns="http://www.w3.org/2000/svg"><g id="Grid" display="none"/><g id="chat"/><g id="_x32_4_hours"/><g id="phone_book"/><g id="mail"/><g id="email_1_"/><g id="customer_support"><path d="m28.009 12.992h-1.304c-.022-5.885-4.814-10.666-10.705-10.666s-10.683 4.781-10.705 10.666h-1.304c-1.594 0-2.891 1.297-2.891 2.891v4.4c0 1.594 1.297 2.89 2.891 2.89h1.471c.899 0 1.631-.731 1.631-1.631v-7.152c0-.453 0-.905 0-1.357 0-4.912 3.996-8.907 8.908-8.907s8.908 3.996 8.908 8.907v1.357 5.216 1.936.756c0 1.905-1.55 3.456-3.456 3.456h-2.106c-.386-1.224-1.518-2.121-2.869-2.121h-.955c-1.666 0-3.021 1.355-3.021 3.021s1.355 3.021 3.021 3.021h.955c1.351 0 2.483-.896 2.869-2.121h2.106c2.598 0 4.747-1.9 5.167-4.38h1.39c1.594 0 2.891-1.296 2.891-2.89v-4.4c-.001-1.595-1.298-2.892-2.892-2.892zm-22.717 8.381h-1.301c-.602 0-1.091-.489-1.091-1.09v-4.4c0-.602.489-1.091 1.091-1.091h1.302v6.581zm11.186 6.502h-.955c-.673 0-1.221-.548-1.221-1.221s.548-1.221 1.221-1.221h.955c.673 0 1.221.548 1.221 1.221s-.548 1.221-1.221 1.221zm12.622-7.592c0 .601-.489 1.09-1.091 1.09h-1.302v-1.767-4.814h1.302c.602 0 1.091.489 1.091 1.091z"/></g><g id="clock"/><g id="info"/><g id="notification"/><g id="_x32_4_hours_service"/><g id="letter"/><g id="outgoing_call"/><g id="incoming_call"/><g id="id_card"/><g id="calendar"/><g id="web"/><g id="block"/><g id="conversation"/><g id="pin"/><g id="call"/><g id="faq"/><g id="microphone"/><g id="feedback"/><g id="sticky_notes"/><g id="agenda"/></svg>