<?xml version="1.0" encoding="UTF-8"?>
<svg id="Capa_1" xmlns="http://www.w3.org/2000/svg" version="1.1" viewBox="0 0 512 512">
  <!-- Generator: Adobe Illustrator 30.3.0, SVG Export Plug-In . SVG Version: 2.1.3 Build 182)  -->
  <defs>
    <style>
      .st0 {
        fill: #4b4c4c;
      }
    </style>
  </defs>
  <path class="st0" d="M216,392c11.05,0,20-8.95,20-20v-112c0-11.05-8.95-20-20-20s-20,8.95-20,20v112c0,11.05,8.95,20,20,20Z"/>
  <path class="st0" d="M296,240c-11.05,0-20,8.95-20,20v112c0,11.05,8.95,20,20,20s20-8.95,20-20v-112c0-11.05-8.95-20-20-20Z"/>
  <path class="st0" d="M196,60c0-11.03,8.97-20,20-20h80c11.03,0,20,8.97,20,20s8.95,20,20,20,20-8.95,20-20c0-33.08-26.92-60-60-60h-80c-33.08,0-60,26.92-60,60,0,11.05,8.95,20,20,20s20-8.95,20-20Z"/>
  <path class="st0" d="M56,120c-11.05,0-20,8.95-20,20s8.95,20,20,20h22.38l38.07,299.43c3.72,29.97,29.32,52.57,59.54,52.57h160c30.23,0,55.83-22.6,59.53-52.5l38.08-299.5h22.38c11.05,0,20-8.95,20-20s-8.95-20-20-20H56ZM393.3,160l-37.45,294.51c-1.24,9.97-9.77,17.49-19.85,17.49h-160c-10.08,0-18.61-7.52-19.85-17.55l-37.44-294.45h274.59Z"/>
</svg>