<svg id="Layer_1" enable-background="new 0 0 800 800" viewBox="0 0 800 800" xmlns="http://www.w3.org/2000/svg"><g><path d="m400 491.7c-6.6 0-13-2.6-17.7-7.3l-100-100c-9.8-9.8-9.8-25.6 0-35.4s25.6-9.8 35.4 0l57.3 57.3v-173c0-13.8 11.2-25 25-25s25 11.2 25 25v173l57.3-57.3c9.8-9.8 25.6-9.8 35.4 0s9.8 25.6 0 35.4l-100 100c-4.7 4.6-11.1 7.3-17.7 7.3z" fill="#1c274c"/><path d="m533.3 591.7h-266.6c-13.8 0-25-11.2-25-25s11.2-25 25-25h266.7c13.8 0 25 11.2 25 25s-11.3 25-25.1 25z" fill="#1c274c"/><path d="m400 758.3c-80.8 0-139.2 0-186.2-6.3-52.9-7.1-88.6-22.5-116-49.8-27.3-27.3-42.7-63.1-49.8-116-6.3-47-6.3-105.4-6.3-186.2s0-139.2 6.3-186.2c7.1-52.9 22.5-88.6 49.8-116s63.1-42.7 116-49.8c47-6.3 105.4-6.3 186.2-6.3s139.2 0 186.2 6.3c52.9 7.1 88.6 22.5 116 49.8 27.3 27.3 42.7 63.1 49.8 116 6.3 47 6.3 105.4 6.3 186.2s0 139.2-6.3 186.2c-7.1 52.9-22.5 88.6-49.8 116-27.3 27.3-63.1 42.7-116 49.8-47 6.3-105.4 6.3-186.2 6.3zm0-666.6c-150 0-225.3 0-266.8 41.5s-41.5 116.8-41.5 266.8 0 225.3 41.5 266.8 116.8 41.5 266.8 41.5 225.3 0 266.8-41.5 41.5-116.8 41.5-266.8 0-225.3-41.5-266.8c-41.5-41.5-116.8-41.5-266.8-41.5z" fill="#8e93a6"/></g></svg>