<?xml version="1.0" encoding="UTF-8"?>
<svg id="Layer_1" xmlns="http://www.w3.org/2000/svg" version="1.1" viewBox="0 0 800 800">
  <!-- Generator: Adobe Illustrator 30.3.0, SVG Export Plug-In . SVG Version: 2.1.3 Build 182)  -->
  <defs>
    <style>
      .st0 {
        fill: #1c274c;
      }
    </style>
  </defs>
  <path class="st0" d="M116.8,681.2c-2,0-4-.2-6-.7-11.2-2.8-19-12.8-19-24.3,0-74.8,10.5-141,31.3-196.8,18.7-50.3,45.8-92.7,80.6-126,63.8-61,138.1-78.3,188.1-82.1v-54.1c0-17.3,0-29.7,1.5-40,2.5-17.5,10.3-29.3,23.1-35.1s26.8-3.7,41.6,6c8.7,5.7,18,14,30.9,25.5l132.4,117.7c56,49.8,86.8,77.2,86.8,118.3s-30.8,68.6-86.8,118.3l-132.4,117.7c-12.9,11.5-22.2,19.8-30.9,25.5-14.8,9.8-28.8,11.8-41.6,6-12.8-5.7-20.6-17.6-23.1-35.1-1.5-10.3-1.5-22.8-1.5-40v-52.3c-109.8,7.5-213.5,63.3-252.8,138.1-4.4,8.4-13,13.4-22.2,13.4h0ZM416.8,478.8c13.8,0,25,11.2,25,25v78.2c0,6.1,0,12.6.1,18.3,4.4-3.7,9.2-8,13.8-12.1l132.4-117.7c48.6-43.2,70-63,70-81s-21.5-37.8-70-81l-132.4-117.6c-4.6-4.1-9.4-8.3-13.8-12.1-.1,5.8-.1,12.2-.1,18.3v78.2c0,13.8-11.2,25-25,25-59,0-240.1,21.4-270.6,277.9,23.2-21.6,51.3-40.6,83.4-56.3,56.9-27.8,123.4-43.1,187.2-43.1h0Z"/>
</svg>