<svg id="Layer_1" enable-background="new 0 0 800 800" viewBox="0 0 800 800" xmlns="http://www.w3.org/2000/svg"><g><path d="m400 758.3c-80.8 0-139.2 0-186.2-6.3-52.9-7.1-88.6-22.5-116-49.8-27.3-27.3-42.7-63.1-49.8-116-6.3-47-6.3-105.4-6.3-186.2s0-139.2 6.3-186.2c7.1-52.9 22.5-88.6 49.8-116s63.1-42.7 116-49.8c47-6.3 105.4-6.3 186.2-6.3 13.8 0 25 11.2 25 25s-11.2 25-25 25c-150 0-225.3 0-266.8 41.5s-41.5 116.8-41.5 266.8 0 225.3 41.5 266.8 116.8 41.5 266.8 41.5 225.3 0 266.8-41.5 41.5-116.8 41.5-266.8c0-13.8 11.2-25 25-25s25 11.2 25 25c0 80.8 0 139.2-6.3 186.2-7.1 52.9-22.5 88.6-49.8 116-27.3 27.3-63.1 42.7-116 49.8-47 6.3-105.4 6.3-186.2 6.3z" fill="#8e93a6"/><path d="m233.3 525c-2 0-4.1-.2-6.1-.8-11.1-2.8-18.9-12.8-18.9-24.2 0-61.4 8.9-115.8 26.4-161.7 15.8-41.6 38.8-76.6 68.4-104.2 52.4-48.9 113.1-63.7 155.2-67.5v-26.9c0-17 0-29.3 1.5-39.5 2.5-17.3 10.2-29.1 22.9-34.9s26.6-3.9 41.3 5.5c8.7 5.6 18 13.6 30.8 24.8l78.6 68.1c57.9 50.2 89.8 77.8 89.8 119.6 0 41.9-31.9 69.5-89.8 119.6l-78.6 68.1c-12.9 11.2-22.2 19.2-30.8 24.8-14.7 9.5-28.7 11.3-41.3 5.5-12.7-5.8-20.4-17.5-22.9-34.9-1.5-10.2-1.5-22.5-1.5-39.5v-24.8c-88.6 7.1-171.4 51-203 109.7-4.4 8.3-12.9 13.2-22 13.2zm250-173.8c13.8 0 25 11.2 25 25v50.8c0 6 0 12.3.1 18 4.4-3.6 9.1-7.8 13.7-11.7l78.6-68.1c50.3-43.6 72.5-63.6 72.5-81.9s-22.2-38.3-72.5-81.9l-78.6-68.1c-4.5-3.9-9.3-8.1-13.7-11.7-.1 5.7-.1 12-.1 18v50.8c0 13.8-11.2 25-25 25-47.3 0-190.7 16.5-219.8 210.2 17.9-14.9 38.8-28 62.2-39.2 48-22.7 103.9-35.2 157.6-35.2z" fill="#1c274c"/></g></svg>