<?xml version="1.0" encoding="UTF-8"?>
<svg id="Layer_1" xmlns="http://www.w3.org/2000/svg" version="1.1" viewBox="0 0 800 800">
  <!-- Generator: Adobe Illustrator 30.3.0, SVG Export Plug-In . SVG Version: 2.1.3 Build 182)  -->
  <defs>
    <style>
      .st0 {
        fill: #fff;
      }
    </style>
  </defs>
  <path class="st0" d="M400,758.3c-80.8,0-139.2,0-186.2-6.3-52.9-7.1-88.6-22.5-116-49.8-27.3-27.3-42.7-63.1-49.8-116-6.3-47-6.3-105.4-6.3-186.2s0-139.2,6.3-186.2c7.1-52.9,22.5-88.6,49.8-116s63.1-42.7,116-49.8c47-6.3,105.4-6.3,186.2-6.3,13.8,0,25,11.2,25,25s-11.2,25-25,25c-150,0-225.3,0-266.8,41.5-41.5,41.5-41.5,116.8-41.5,266.8s0,225.3,41.5,266.8,116.8,41.5,266.8,41.5,225.3,0,266.8-41.5,41.5-116.8,41.5-266.8c0-13.8,11.2-25,25-25s25,11.2,25,25c0,80.8,0,139.2-6.3,186.2-7.1,52.9-22.5,88.6-49.8,116-27.3,27.3-63.1,42.7-116,49.8-47,6.3-105.4,6.3-186.2,6.3Z"/>
  <path class="st0" d="M700,641.7c-6,0-11.9-2.1-16.7-6.4l-107.4-96.7c-26.2-23.5-64.5-25.8-93.3-5.6l-9.9,7c-36.5,25.7-86,21.4-117.5-10.2l-143-143c-19.2-19.2-50.2-20.2-70.6-2.3l-58.4,51.1c-10.4,9.1-26.2,8-35.3-2.4s-8-26.2,2.4-35.3l58.4-51.1c40.1-35.1,101.1-33.1,138.8,4.6l143,143c14.4,14.4,36.8,16.3,53.4,4.6l9.9-7c23.1-16.2,51.3-24.2,79.4-22.5s55.2,13,76.1,31.9l107.5,96.7c10.3,9.2,11.1,25,1.9,35.3-5.1,5.5-11.9,8.3-18.7,8.3Z"/>
  <path class="st0" d="M616.7,325c-13.8,0-25-11.2-25-25v-91.7h-91.7c-13.8,0-25-11.2-25-25s11.2-25,25-25h91.7v-91.6c0-13.8,11.2-25,25-25s25,11.2,25,25v91.7h91.7c13.8,0,25,11.2,25,25s-11.2,25-25,25h-91.7v91.6c0,13.8-11.2,25-25,25Z"/>
</svg>