<svg id="layer_1" enable-background="new 0 0 32 32" height="512" viewBox="0 0 32 32" width="512" xmlns="http://www.w3.org/2000/svg"><g><path d="m4 10.1542969h4.1542969c1.1025391 0 2-.8969727 2-2v-4.1542969c0-1.1030273-.8974609-2-2-2h-4.1542969c-1.1025391 0-2 .8969727-2 2v4.1542969c0 1.1030273.8974609 2 2 2z"/><path d="m13.9228516 10.1542969h4.1542969c1.1025391 0 2-.8969727 2-2v-4.1542969c0-1.1030273-.8974609-2-2-2h-4.1542969c-1.1025391 0-2 .8969727-2 2v4.1542969c0 1.1030273.8974609 2 2 2z"/><path d="m28 2h-4.1542969c-1.1025391 0-2 .8969727-2 2v4.1542969c0 1.1030273.8974609 2 2 2h4.1542969c1.1025391 0 2-.8969727 2-2v-4.1542969c0-1.1030273-.8974609-2-2-2z"/><path d="m4 20.0771484h4.1542969c1.1025391 0 2-.8969727 2-2v-4.1542969c0-1.1030273-.8974609-2-2-2h-4.1542969c-1.1025391 0-2 .8969727-2 2v4.1542969c0 1.1030274.8974609 2 2 2z"/><path d="m11.9228516 18.0771484c0 1.1030273.8974609 2 2 2h4.1542969c1.1025391 0 2-.8969727 2-2v-4.1542969c0-1.1030273-.8974609-2-2-2h-4.1542969c-1.1025391 0-2 .8969727-2 2z"/><path d="m28 11.9228516h-4.1542969c-1.1025391 0-2 .8969727-2 2v4.1542969c0 1.1030273.8974609 2 2 2h4.1542969c1.1025391 0 2-.8969727 2-2v-4.1542969c0-1.1030274-.8974609-2-2-2z"/><path d="m4 30h4.1542969c1.1025391 0 2-.8969727 2-2v-4.1542969c0-1.1030273-.8974609-2-2-2h-4.1542969c-1.1025391 0-2 .8969727-2 2v4.1542969c0 1.1030273.8974609 2 2 2z"/><path d="m11.9228516 28c0 1.1030273.8974609 2 2 2h4.1542969c1.1025391 0 2-.8969727 2-2v-4.1542969c0-1.1030273-.8974609-2-2-2h-4.1542969c-1.1025391 0-2 .8969727-2 2z"/><path d="m28 21.8457031h-4.1542969c-1.1025391 0-2 .8969727-2 2v4.1542969c0 1.1030273.8974609 2 2 2h4.1542969c1.1025391 0 2-.8969727 2-2v-4.1542969c0-1.1030273-.8974609-2-2-2z"/></g></svg>