<svg id="Capa_1" enable-background="new 0 0 512.172 512.172" height="512" viewBox="0 0 512.172 512.172" width="512" xmlns="http://www.w3.org/2000/svg"><g id="Hyperlink"><g><path d="m213.16 298.977c-7.811-7.811-7.811-20.474 0-28.284 7.81-7.811 20.473-7.811 28.284 0 23.447 23.447 61.401 23.452 84.852 0l128.279-128.279c23.449-23.447 23.452-61.402 0-84.853-23.393-23.394-61.458-23.394-84.853 0l-99.995 99.995c-7.811 7.811-20.474 7.811-28.284 0-7.811-7.81-7.811-20.474 0-28.284l99.995-99.995c38.99-38.99 102.433-38.99 141.421 0 39.081 39.081 39.085 102.336 0 141.422l-128.278 128.278c-39.08 39.08-102.336 39.086-141.421 0z"/></g><g><path d="m29.312 482.825c-39.08-39.079-39.085-102.336 0-141.422l127.279-127.279c39.08-39.08 102.336-39.085 141.422 0 7.81 7.811 7.81 20.474-.001 28.284-7.809 7.811-20.472 7.811-28.284 0-23.448-23.448-61.402-23.451-84.853 0l-127.279 127.28c-23.448 23.448-23.451 61.402 0 84.853 23.448 23.448 61.402 23.45 84.853 0l98.995-98.995c7.811-7.811 20.474-7.811 28.284 0 7.81 7.81 7.81 20.474 0 28.284l-98.995 98.995c-39.079 39.08-102.337 39.085-141.421 0z"/></g><g><path d="m102.124 207.059-36.252-16.905c-10.011-4.668-14.342-16.568-9.674-26.579 4.667-10.011 16.568-14.342 26.578-9.674l36.252 16.905c10.011 4.668 14.342 16.568 9.674 26.579-4.68 10.038-16.593 14.33-26.578 9.674z"/></g><g><path d="m428.395 359.201-36.253-16.905c-10.011-4.668-14.342-16.568-9.674-26.579s16.57-14.34 26.578-9.674l36.253 16.905c10.011 4.668 14.342 16.568 9.674 26.579-4.682 10.043-16.597 14.328-26.578 9.674z"/></g><g><path d="m169.84 119.994-16.904-36.252c-4.668-10.011-.337-21.91 9.674-26.578s21.911-.337 26.579 9.674l16.904 36.252c4.668 10.011.337 21.91-9.674 26.578-9.968 4.649-21.89.38-26.579-9.674z"/></g><g><path d="m321.983 446.265-16.904-36.252c-4.668-10.011-.337-21.91 9.674-26.578 10.009-4.667 21.911-.337 26.578 9.674l16.904 36.252c4.668 10.011.337 21.91-9.674 26.578-9.967 4.648-21.89.381-26.578-9.674z"/></g></g></svg>