<?xml version="1.0" encoding="UTF-8"?>
<svg id="Layer_1" xmlns="http://www.w3.org/2000/svg" version="1.1" viewBox="0 0 512 512">
  <!-- Generator: Adobe Illustrator 30.3.0, SVG Export Plug-In . SVG Version: 2.1.3 Build 182)  -->
  <defs>
    <style>
      .st0 {
        fill: #fff;
      }
    </style>
  </defs>
  <path class="st0" d="M192,229.33c-32.43,0-58.67-26.24-58.67-58.67s26.24-58.67,58.67-58.67,58.67,26.24,58.67,58.67-26.24,58.67-58.67,58.67ZM192,144c-14.72,0-26.67,11.95-26.67,26.67s11.95,26.67,26.67,26.67,26.67-11.95,26.67-26.67-11.95-26.67-26.67-26.67Z"/>
  <path class="st0" d="M320,485.33h-128c-115.84,0-165.33-49.49-165.33-165.33v-128c0-115.84,49.49-165.33,165.33-165.33h85.33c8.75,0,16,7.25,16,16s-7.25,16-16,16h-85.33c-98.35,0-133.33,34.99-133.33,133.33v128c0,98.35,34.99,133.33,133.33,133.33h128c98.35,0,133.33-34.99,133.33-133.33v-106.67c0-8.75,7.25-16,16-16s16,7.25,16,16v106.67c0,115.84-49.49,165.33-165.33,165.33Z"/>
  <path class="st0" d="M384,186.67c-8.75,0-16-7.25-16-16V42.67c0-6.4,3.84-12.37,9.81-14.72s12.8-1.07,17.49,3.41l42.67,42.67c6.19,6.19,6.19,16.43,0,22.61s-16.43,6.19-22.61,0l-15.36-15.36v89.39c0,8.75-7.25,16-16,16Z"/>
  <path class="st0" d="M341.33,101.33c-4.05,0-8.11-1.49-11.31-4.69-6.19-6.19-6.19-16.43,0-22.61l42.67-42.67c6.19-6.19,16.43-6.19,22.61,0s6.19,16.43,0,22.61l-42.67,42.67c-3.2,3.2-7.25,4.69-11.31,4.69Z"/>
  <path class="st0" d="M56.96,420.27c-5.12,0-10.24-2.56-13.23-7.04-4.91-7.25-2.99-17.28,4.27-22.19l105.17-70.61c23.04-15.36,54.83-13.65,75.73,4.05l7.04,6.19c10.67,9.17,28.8,9.17,39.25,0l88.75-76.16c22.61-19.41,58.24-19.41,81.07,0l34.77,29.87c6.61,5.76,7.47,15.79,1.71,22.61-5.76,6.61-16,7.47-22.61,1.71l-34.77-29.87c-10.67-9.17-28.59-9.17-39.25,0l-88.75,76.16c-22.61,19.41-58.24,19.41-81.07,0l-7.04-6.19c-9.81-8.32-26.03-9.17-36.91-1.71l-104.96,70.61c-2.99,1.71-6.19,2.56-9.17,2.56h0Z"/>
</svg>