<svg enable-background="new 0 0 32 32" height="512" viewBox="0 0 32 32" width="512" xmlns="http://www.w3.org/2000/svg"><g id="Layer_1"><g fill="rgb(0,0,0)"><path d="m26.5752 1h-21.1504c-2.4394 0-4.4248 1.9849-4.4248 4.4243v21.1514c0 2.4394 1.9854 4.4243 4.4248 4.4243h21.1504c2.4394 0 4.4248-1.9849 4.4248-4.4243v-21.1514c0-2.4394-1.9854-4.4243-4.4248-4.4243zm-21.1504 2h21.1504c1.3369 0 2.4248 1.0874 2.4248 2.4243v16.5757c-2.3511.0011-4.6074-.3054-6.7041-.9551-2.583-.7998-4.3652-1.895-6.0889-2.9541-2.0547-1.2627-3.9961-2.4556-7.0068-3.0708-2.0038-.4092-4.0859-.4532-6.2002-.1738v-9.4219c0-1.3369 1.0879-2.4243 2.4248-2.4243zm21.1504 26h-21.1504c-1.3369 0-2.4248-1.0874-2.4248-2.4243v-9.7112c1.9843-.291 3.9333-.2656 5.7998.1155 2.665.5444 4.377 1.5967 6.3604 2.8149 1.8291 1.124 3.7207 2.2861 6.5439 3.1602 2.2842.7075 4.7266 1.0645 7.2734 1.0645.0074 0 .015-.0004.0225-.0004v2.5566c0 1.3368-1.0879 2.4242-2.4248 2.4242z"/><path d="m21.5 15c2.4814 0 4.5-2.0186 4.5-4.5s-2.0186-4.5-4.5-4.5-4.5 2.0186-4.5 4.5 2.0186 4.5 4.5 4.5zm0-7c1.3789 0 2.5 1.1216 2.5 2.5s-1.1211 2.5-2.5 2.5-2.5-1.1216-2.5-2.5 1.1211-2.5 2.5-2.5z"/></g></g></svg>