<svg fill="none" height="50" viewBox="0 0 50 50" width="50" xmlns="http://www.w3.org/2000/svg"><path d="m5.20839 18.4582 18.75001 10.8334c.3167.1828.676.2791 1.0417.2791s.7249-.0963 1.0416-.2791l18.75-10.8334c.3149-.1818.5767-.4428.7594-.7571.1828-.3143.2801-.671.2823-1.0345.0014-.3671-.0941-.7281-.2771-1.0464-.1829-.3183-.4467-.5826-.7646-.7661l-18.75-10.81253c-.3167-.18286-.6759-.27912-1.0416-.27912s-.725.09626-1.0417.27912l-18.75001 10.81253c-.31793.1835-.58171.4478-.76463.7661-.18293.3183-.2785.6793-.27704 1.0464.00219.3635.0995.7202.28224 1.0345s.44456.5753.75943.7571zm19.79171-10.12497 14.5833 8.33337-14.5833 8.3333-14.5834-8.3333zm17.7083 14.93747-17.7083 10.0625-17.70838-10.1458c-.23778-.1377-.50046-.2271-.77292-.2629-.27245-.0358-.5493-.0173-.81459.0543-.26529.0717-.51379.1951-.73118.3632s-.39937.3775-.53548.6162c-.27161.4784-.34299 1.0448-.19858 1.5756s.49289.9829.96942 1.2578l18.75001 10.8333c.3167.1829.676.2791 1.0417.2791s.7249-.0962 1.0416-.2791l18.75-10.8333c.4765-.2749.825-.727.9694-1.2578.1445-.5308.0731-1.0972-.1985-1.5756-.1362-.2387-.3181-.4481-.5355-.6162s-.4659-.2915-.7312-.3632c-.2653-.0716-.5421-.0901-.8146-.0543s-.5351.1252-.7729.2629zm0 8.3334-17.7083 10.0625-17.70838-10.1459c-.23778-.1377-.50046-.2271-.77292-.2629-.27245-.0358-.5493-.0173-.81459.0543-.26529.0717-.51379.1951-.73118.3632s-.39937.3775-.53548.6163c-.27161.4783-.34299 1.0447-.19858 1.5755s.49289.983.96942 1.2578l18.75001 10.8333c.3167.1829.676.2792 1.0417.2792s.7249-.0963 1.0416-.2792l18.75-10.8333c.4765-.2748.825-.727.9694-1.2578.1445-.5308.0731-1.0972-.1985-1.5755-.1362-.2388-.3181-.4482-.5355-.6163s-.4659-.2915-.7312-.3632c-.2653-.0716-.5421-.0901-.8146-.0543s-.5351.1252-.7729.2629z" fill="rgb(0,0,0)"/></svg>