<svg id="Layer_1" enable-background="new 0 0 800 800" viewBox="0 0 800 800" xmlns="http://www.w3.org/2000/svg"><g fill="#1c274c"><path d="m400 425c-45.9 0-82.8-14.7-149.7-41.5l-93.6-37.5c-34.3-13.7-59.1-23.6-76.8-32.9-11.4-6-38.2-20-38.2-46.5 0-26.4 26.8-40.5 38.2-46.5 17.7-9.3 42.5-19.2 76.8-32.9l93.6-37.4c66.9-26.8 103.8-41.5 149.7-41.5s82.8 14.7 149.7 41.5l93.6 37.5c34.3 13.7 59.1 23.6 76.8 32.9 11.4 6 38.2 20 38.2 46.5 0 26.4-26.8 40.5-38.2 46.5-17.7 9.3-42.5 19.2-76.8 32.9l-93.6 37.4c-66.9 26.8-103.8 41.5-149.7 41.5zm-300.9-158.3c3.3 1.9 7.8 4.2 13.8 7 15.3 7.1 36 15.4 62.3 25.9l93.6 37.4c65.2 26.1 94.9 38 131.2 38s66-11.9 131.1-37.9l93.6-37.5c26.3-10.5 47.1-18.8 62.3-25.9 6-2.8 10.5-5.1 13.8-7-3.3-1.9-7.8-4.2-13.8-7-15.3-7.1-36-15.4-62.3-25.9l-93.6-37.4c-65.1-26-94.8-37.9-131.1-37.9s-66 11.9-131.1 37.9l-93.6 37.4c-26.3 10.5-47.1 18.8-62.3 25.9-6.1 2.8-10.6 5.1-13.9 7z"/><path d="m400 558.3c-45.9 0-82.8-14.7-149.7-41.5l-93.6-37.4c-69.5-27.8-105.3-59.5-106.7-60.8-10.3-9.2-11.1-25-1.9-35.3s25-11.1 35.3-1.9c.2.2 31.3 27.3 91.9 51.6l93.6 37.4c65.1 26 94.8 37.9 131.1 37.9s66-11.9 131.1-37.9l93.6-37.5c60.6-24.2 91.6-51.4 92-51.6 10.3-9.2 26-8.3 35.3 1.9 9.2 10.3 8.3 26.1-1.9 35.3-1.5 1.3-37.2 33-106.7 60.8l-93.6 37.4c-67 26.9-103.9 41.6-149.8 41.6z"/><path d="m400 691.7c-45.9 0-82.8-14.7-149.7-41.5l-93.6-37.5c-69.5-27.8-105.3-59.4-106.7-60.8-10.3-9.2-11.1-25-1.9-35.3s25-11.1 35.3-1.9c.2.2 31.3 27.3 91.9 51.6l93.6 37.4c65.1 26 94.8 37.9 131.1 37.9s66-11.9 131.1-37.9l93.6-37.5c60.6-24.2 91.6-51.4 92-51.6 10.3-9.2 26-8.3 35.3 1.9 9.2 10.3 8.3 26.1-1.9 35.3-1.5 1.3-37.2 33-106.7 60.8l-93.6 37.4c-67 26.9-103.9 41.7-149.8 41.7z"/></g></svg>