<svg id="Layer_1" enable-background="new 0 0 800 800" viewBox="0 0 800 800" xmlns="http://www.w3.org/2000/svg"><g><path d="m600 481.5c-41.4 0-75-33.6-75-75s33.6-75 75-75 75 33.6 75 75c0 41.3-33.6 75-75 75zm0-100c-13.8 0-25 11.2-25 25s11.2 25 25 25 25-11.2 25-25-11.2-25-25-25z" fill="#8e93a6"/><path d="m700 664.8c-5.8 0-11.6-2-16.3-6.1l-83.2-71.6c-18.2-15.7-46-17.2-66-3.7l-7.7 5.2c-30.2 20.3-71.2 16.9-97.4-8.2l-110.7-105.9c-13-12.4-33.9-13-47.7-1.5l-44.7 37.4-125.9 117.8c-10.1 9.4-25.9 8.9-35.3-1.2s-8.9-25.9 1.2-35.3l126.8-118.7 45.7-38.3c16.1-13.5 36.7-20.5 57.9-19.8 21.3.7 41.3 9 56.5 23.5l110.7 105.9c9.2 8.8 24.2 10 34.9 2.8l7.7-5.2c39-26.2 91.1-23.2 126.6 7.3l83.2 71.6c10.5 9 11.6 24.8 2.6 35.3-4.9 5.7-11.9 8.7-18.9 8.7z" fill="#8e93a6"/><path d="m672.8 75.3c-24.8-10.9-52-8.6-74.7 6.3-24.5 16-39.8 44.8-39.8 74.9v86.9c-48.1 9.3-102.4 14.1-158.3 14.1-56 0-110.3-4.9-158.3-14.1v-86.9c0-30.2-15.2-58.9-39.8-74.9-22.7-14.8-49.9-17.1-74.7-6.3-70.7 31-85.5 67.7-85.5 93.1v423.9c0 29.7 19.9 71.9 114.5 104.3 65.5 22.4 152.1 34.8 243.8 34.8s178.3-12.3 243.8-34.8c94.7-32.4 114.5-74.6 114.5-104.3v-423.9c0-25.3-14.8-62.1-85.5-93.1zm-525.5 45.8c11.8-5.1 21.3-1.6 27.3 2.3 10.6 6.9 17.1 19.6 17.1 33.1v75c-65.8-19.2-100-45.1-100-63.1 0-11.1 14.6-29.3 55.6-47.3zm561 471.2c0 13.6-21.1 36.6-80.7 57-60.4 20.7-141.3 32.1-227.6 32.1s-167.2-11.4-227.6-32.1c-59.6-20.4-80.7-43.5-80.7-57v-349.5c1 .6 1.9 1.2 2.9 1.8 28.4 17.7 68.7 32.7 116.6 43.5 56.2 12.7 121.5 19.4 188.8 19.4s132.6-6.7 188.8-19.4c47.9-10.8 88.2-25.9 116.6-43.5 1-.6 2-1.2 2.9-1.8zm-100-360.8v-75c0-13.5 6.6-26.2 17.1-33.1 3.8-2.5 9.2-4.9 15.6-4.9 3.6 0 7.5.7 11.7 2.6 41 18 55.6 36.2 55.6 47.3 0 18-34.2 44-100 63.1z" fill="#1c274c"/></g></svg>