<svg id="Layer_1" enable-background="new 0 0 800 800" viewBox="0 0 800 800" xmlns="http://www.w3.org/2000/svg"><g><path d="m174.3 609.1-50-50 35.4-35.4 50 50zm435.5-313.7c-2.5-.1-62.6-4.3-115.1-56.7-52.5-52.5-56.6-112.5-56.7-115.1l49.9-2.9v-.2c.1 1.8 3.7 44.3 42.2 82.8s81 42 82.8 42.2h-.2z" fill="#8e93a6"/><path d="m666.7 758.3h-533.3c-13.8 0-25-11.2-25-25s11.2-25 25-25h533.3c13.8 0 25 11.2 25 25s-11.2 25-25 25z" fill="#8e93a6"/><path d="m161.5 625c-13.9 0-27.3-5.4-37.5-15.6-14.4-14.4-19.3-35.3-12.9-54.5l36.3-108.9c7.2-21.6 10.8-32.4 16.1-43.5 6.2-13.1 13.9-25.5 22.8-36.9 7.6-9.7 15.6-17.8 31.7-33.9l252-252c24.5-24.5 57.1-38 91.8-38s67.3 13.5 91.8 38c50.6 50.6 50.6 133 0 183.7l-252 252c-16.1 16.1-24.2 24.2-33.9 31.7-11.4 8.9-23.8 16.6-36.9 22.8-11.1 5.3-22 8.9-43.5 16.1l-108.9 36.3c-5.5 1.8-11.2 2.7-16.9 2.7zm400.3-533.3c-21.3 0-41.4 8.3-56.5 23.4l-251.9 251.9c-14.6 14.6-22 22-27.7 29.3-6.7 8.6-12.4 17.9-17.1 27.7-4 8.3-7.2 18.2-13.8 37.8l-36.3 108.9c-.4 1.2-.1 2.5.8 3.4s2.2 1.2 3.4.8l108.9-36.3c19.6-6.5 29.5-9.8 37.8-13.8 9.8-4.7 19.1-10.4 27.7-17.1 6.6-5.2 13.3-11.7 25.5-23.9l3.7-3.7 252-252.1c31.1-31.1 31.1-81.8 0-112.9-15.1-15.1-35.1-23.4-56.5-23.4z" fill="#1c274c"/></g></svg>