<svg id="Layer_1" enable-background="new 0 0 800 800" viewBox="0 0 800 800" xmlns="http://www.w3.org/2000/svg"><g><path d="m122.3 740.2-62.5-62.5 35.4-35.4 62.5 62.5zm540.3-393.9c-3.1-.2-75.9-5.2-139.8-69.1s-68.9-136.7-69.1-139.8l49.9-2.9v-.1c0 .6 4.6 57.6 54.5 107.5 50.6 50.6 106.8 54.5 107.4 54.5z" fill="#8e93a6"/><path d="m101.9 758.4c-15.7 0-31-6.2-42.5-17.7-16.3-16.3-21.9-39.9-14.6-61.8l45.4-136.1c8.9-26.8 13.4-40.2 19.8-53.7 7.6-15.9 16.9-31.1 27.8-45 9.2-11.8 19.2-21.8 39.1-41.7l315-315c29.5-29.5 68.7-45.7 110.4-45.7s80.9 16.2 110.4 45.7c60.9 60.9 60.9 159.9 0 220.7l-315 315c-19.9 19.9-29.9 29.9-41.7 39.1-13.9 10.9-29.1 20.2-45 27.8-13.5 6.4-26.9 10.9-53.6 19.8l-136.2 45.4c-6.4 2.1-12.9 3.2-19.3 3.2zm425.4-635.7-314.9 315c-18.5 18.5-27.8 27.8-35.1 37.2-8.6 11.1-16.1 23.1-22.1 35.8-5.1 10.7-9.3 23.2-17.5 48l-45.4 136c-1.2 3.7-.3 7.8 2.5 10.6s6.8 3.7 10.6 2.5l136.1-45.4c24.8-8.3 37.3-12.4 48-17.5 12.7-6 24.7-13.5 35.8-22.1 9.4-7.3 18.6-16.6 37.1-35l.1-.1 314.9-314.9c41.4-41.4 41.4-108.7 0-150-20-20-46.7-31.1-75-31.1-28.4-.1-55.1 11-75.1 31z" fill="#1c274c"/></g></svg>