<svg id="outline" viewBox="0 0 32 32" xmlns="http://www.w3.org/2000/svg"><path d="m26.753 6.905-8.253-4.764c-1.541-.892-3.459-.891-5 0l-8.253 4.764c-1.542.891-2.5 2.55-2.5 4.331v9.529c0 1.781.958 3.44 2.5 4.331l8.253 4.764c.771.446 1.636.668 2.5.668s1.729-.223 2.5-.668l8.253-4.765c1.542-.891 2.5-2.55 2.5-4.331v-9.529c0-1.781-.958-3.44-2.5-4.331zm.5 13.86c0 1.068-.575 2.064-1.5 2.598l-8.253 4.765c-.926.534-2.074.535-3 0l-8.253-4.765c-.925-.534-1.5-1.53-1.5-2.598v-9.53c0-1.068.575-2.064 1.5-2.598l8.253-4.765c.463-.267.981-.401 1.5-.401s1.037.134 1.5.401l8.253 4.765c.925.534 1.5 1.53 1.5 2.598v9.529z"/><path d="m16 10.284c-3.151 0-5.716 2.564-5.716 5.716s2.564 5.716 5.716 5.716 5.716-2.564 5.716-5.716-2.564-5.716-5.716-5.716zm0 9.433c-2.049 0-3.716-1.667-3.716-3.716s1.667-3.716 3.716-3.716 3.716 1.667 3.716 3.716-1.667 3.716-3.716 3.716z"/></svg>