<svg id="Layer_1" enable-background="new 0 0 800 800" viewBox="0 0 800 800" xmlns="http://www.w3.org/2000/svg"><g><g fill="#1c274c"><path d="m400 325c-68.9 0-125-56.1-125-125s56.1-125 125-125 125 56.1 125 125-56.1 125-125 125zm0-200c-41.4 0-75 33.6-75 75s33.6 75 75 75 75-33.6 75-75-33.6-75-75-75z"/><path d="m183.3 725c-68.9 0-125-56.1-125-125s56.1-125 125-125 125 56.1 125 125-56 125-125 125zm0-200c-41.4 0-75 33.6-75 75s33.6 75 75 75 75-33.6 75-75-33.6-75-75-75z"/><path d="m616.7 725c-68.9 0-125-56.1-125-125s56.1-125 125-125 125 56.1 125 125-56.1 125-125 125zm0-200c-41.4 0-75 33.6-75 75s33.6 75 75 75 75-33.6 75-75-33.7-75-75-75z"/></g><path d="m400 725c-24.7 0-49.2-3.1-72.9-9.2-13.4-3.4-21.4-17.1-18-30.4 3.4-13.4 17.1-21.4 30.4-18 19.6 5 40 7.6 60.4 7.6 20.5 0 40.8-2.6 60.4-7.6 13.4-3.4 27 4.6 30.4 18s-4.6 27-18 30.4c-23.5 6.1-48 9.2-72.7 9.2zm266.7-266.7c-13.8 0-25-11.2-25-25 0-69.3-29.8-135.4-81.8-181.3-10.4-9.1-11.3-24.9-2.2-35.3s24.9-11.3 35.3-2.2c62.7 55.4 98.7 135.1 98.7 218.7 0 13.9-11.2 25.1-25 25.1zm-533.4 0c-13.8 0-25-11.2-25-25 0-83.6 36-163.4 98.7-218.7 10.4-9.1 26.2-8.2 35.3 2.2s8.2 26.1-2.2 35.3c-52 45.9-81.8 112-81.8 181.3 0 13.7-11.2 24.9-25 24.9z" fill="#8e93a6"/></g></svg>