<svg id="Layer_1" viewBox="0 0 24 24" xmlns="http://www.w3.org/2000/svg" data-name="Layer 1"><path d="m21 12c-.55 0-1 .45-1 1 0 1.07-.42 2.07-1.17 2.83-.76.76-1.76 1.17-2.83 1.17h-10.59l1.29-1.29c.39-.39.39-1.02 0-1.41s-1.02-.39-1.41 0l-3 3c-.09.09-.17.2-.22.33-.1.24-.1.52 0 .76.05.12.12.23.22.33l3 3c.2.2.45.29.71.29s.51-.1.71-.29c.39-.39.39-1.02 0-1.41l-1.29-1.29h10.59c1.6 0 3.11-.62 4.24-1.76 1.13-1.13 1.76-2.64 1.76-4.24 0-.55-.45-1-1-1z"/><path d="m3 12c.55 0 1-.45 1-1 0-1.07.42-2.07 1.17-2.83.76-.76 1.76-1.17 2.83-1.17h10.59l-1.29 1.29c-.39.39-.39 1.02 0 1.41.2.2.45.29.71.29s.51-.1.71-.29l3-3c.09-.09.17-.2.22-.33.1-.24.1-.52 0-.76-.05-.12-.12-.23-.22-.33l-3-3c-.39-.39-1.02-.39-1.41 0s-.39 1.02 0 1.41l1.29 1.29h-10.6c-1.6 0-3.11.62-4.24 1.76-1.13 1.13-1.76 2.64-1.76 4.24 0 .55.45 1 1 1z"/></svg>