<?xml version="1.0" encoding="UTF-8"?>
<svg id="Layer_1" data-name="Layer 1" xmlns="http://www.w3.org/2000/svg" xmlns:xlink="http://www.w3.org/1999/xlink" viewBox="0 0 1280 1024">
  <defs>
    <style>
      .cls-1 {
        fill: none;
      }

      .cls-2 {
        clip-path: url(#clippath-1);
      }

      .cls-3 {
        clip-path: url(#clippath);
      }
    </style>
    <clipPath id="clippath">
      <rect class="cls-1" x="652.76" y="202.05" width="174.82" height="325.44"/>
    </clipPath>
    <clipPath id="clippath-1">
      <rect class="cls-1" x="452.42" y="198.85" width="200.34" height="329.62"/>
    </clipPath>
  </defs>
  <g>
    <path d="M534.89,755.87l4.07,10.72c-11.94,5.47-26.59,8.2-43.93,8.2-21.86,0-40.05-7.83-54.58-23.49-14.53-15.66-21.8-35.54-21.8-59.65s7.27-43.88,21.8-59.31c14.53-15.43,32.72-23.15,54.58-23.15,17.35,0,31.99,2.74,43.93,8.2l-4.07,10.72c-12.21-5.18-25.31-7.77-39.33-7.77-17.4,0-32.21,6.45-44.41,19.35-12.89,13.58-19.33,31.01-19.33,52.29s6.44,38.71,19.33,52.29c12.2,12.9,27,19.35,44.41,19.35,14.02,0,27.12-2.59,39.33-7.77Z"/>
    <path d="M582.55,622.72c0,3.16-1.01,5.69-3.04,7.6-2.03,1.92-4.62,2.87-7.77,2.87s-5.69-.96-7.61-2.87c-1.92-1.91-2.87-4.45-2.87-7.6s.96-5.74,2.87-7.77c1.91-2.03,4.45-3.04,7.61-3.04s5.74,1.01,7.77,3.04,3.04,4.62,3.04,7.77ZM578.83,772.43h-13.18v-114.9h13.18v114.9Z"/>
    <path d="M630.88,622.72c0,3.16-1.01,5.69-3.04,7.6-2.03,1.92-4.62,2.87-7.77,2.87s-5.69-.96-7.61-2.87c-1.92-1.91-2.87-4.45-2.87-7.6s.96-5.74,2.87-7.77c1.91-2.03,4.45-3.04,7.61-3.04s5.74,1.01,7.77,3.04,3.04,4.62,3.04,7.77ZM627.16,772.43h-13.18v-114.9h13.18v114.9Z"/>
    <path d="M706.92,772.43c-13.3,29.96-30.98,47.53-53.06,52.72l-3.04-10.48c19.15-4.28,33.68-19.6,43.6-45.96,0-.68-.34-2.03-1.01-4.06l-47.65-107.13h14.19l42.92,97.33,40.22-97.33h14.53l-50.69,114.9Z"/>
    <path d="M861.36,772.43l-11.83,2.37-4.73-18.59c-10.37,12.84-23.99,19.26-40.89,19.26-9.92,0-18.48-2.81-25.68-8.41-7.21-5.61-10.81-13.34-10.81-23.21,0-28.48,24.89-42.72,74.69-42.72h2.03v-2.05c0-7.5-1.69-14.1-5.07-19.79-5.19-9.1-13.97-13.65-26.36-13.65-7.89,0-20.05,2.59-36.5,7.77l-1.69-12.17c12.62-4.06,25.68-6.08,39.2-6.08,29.06,0,43.6,16,43.6,47.99v41.23c0,9.46,1.35,18.82,4.06,28.05ZM844.12,735.26v-22.98c-41.91,0-62.86,9.69-62.86,29.07,0,7.43,2.25,13.13,6.76,17.07,4.5,3.94,10.14,5.91,16.9,5.91,17.79,0,30.3-7.55,37.51-22.64,1.13-2.48,1.69-4.62,1.69-6.42Z"/>
  </g>
  <g>
    <g class="cls-3">
      <g>
        <path d="M778.29,297.07c24.27,11.73,37.15,41.3,42.85,66.83,9.43,42.24,3.71,96.62-23.52,130.96-25.4,32.02-68.85,31.98-100.61,5.4-11.83-9.9-21.9-20.97-30.45-33.93l-37.54-56.9-32.68-48.31c-8.67-12.82-18.9-23.76-30.79-33.56-30.86-25.46-74.25-22.8-94.91,10.8-9.16,14.89-14.55,31.13-16.54,48.76-3.6,31.83,1.78,68.33,22,93.08,25.37,31.04,68.61,27.45,96.83-.26,13.96-13.35,25.53-28.19,37.1-44.17l16.07,19.37c-10.78,13.27-21.22,26.21-33.73,38.03-32.16,30.38-80.21,37.78-118.95,15.63-18.35-10.49-31.86-27.4-40.16-47.06-14.97-35.44-14.84-76.29.31-111.55,9.74-22.66,26.01-41.37,48.43-51.43,34.92-15.66,75.04-8.86,104.39,15.16,12.44,10.18,23.09,21.11,32.03,34.52,10.51,17.06,21.83,34.34,34.02,51.75,2.63,3.75,5.26,7.46,7.9,11.13,11.63,17.1,23.25,34.2,34.88,51.3,6.89,10.14,15.3,18.45,24.68,26.25,4.95,4.11,10.67,7.12,16.67,9.29,16.18,5.83,32.84-.86,41.5-15.64,17.76-30.3,19.83-79.09,14.48-113.91-2.31-15.07-7.1-28.66-14.74-41.31-9.89-16.37-28.47-21.68-45.68-12.89-8.98,4.59-16.12,11.56-23.55,18.91-12.37,14.27-23,29.37-33.72,45.69l-15.08-20.85,20.42-27.33c6.76-9.05,14.41-16.45,23.09-23.75,20.81-17.5,49.83-22.16,75.01-10Z"/>
        <path d="M709.74,245.57c-5.52-8.63-5.16-19.2-.02-27.48,4.87-7.84,14.17-12.65,24.3-12.43,9.64.21,18.45,5.05,23.02,12.57,4.99,8.2,5,18.4.18,26.86-4.74,8.34-13.8,13.06-22.75,13.38-9.57.35-19.13-4.15-24.73-12.91Z"/>
      </g>
    </g>
    <g class="cls-2">
      <g>
        <path d="M503.76,513.48c-24.27-11.73-37.15-41.3-42.85-66.83-9.43-42.24-3.71-96.62,23.52-130.96,25.4-32.02,68.85-31.98,100.61-5.4,11.83,9.9,21.9,20.97,30.45,33.93l37.54,56.9,32.68,48.31c8.67,12.82,18.9,23.76,30.79,33.56,30.86,25.46,74.25,22.8,94.91-10.8,9.16-14.89,14.55-31.13,16.54-48.76,3.6-31.83-1.78-68.33-22-93.08-25.37-31.04-68.61-27.45-96.83.26-13.96,13.35-25.53,28.19-37.1,44.17l-16.07-19.37c10.78-13.27,21.22-26.21,33.73-38.03,32.16-30.38,80.21-37.78,118.95-15.63,18.35,10.49,31.86,27.4,40.16,47.06,14.97,35.44,14.84,76.29-.31,111.55-9.74,22.66-26.01,41.37-48.43,51.43-34.92,15.66-75.04,8.86-104.39-15.16-12.44-10.18-23.09-21.11-32.03-34.52-3.54-5.46-7.11-10.92-10.71-16.4-10.38-15.78-20.79-31.27-31.22-46.48-11.63-17.1-23.25-34.2-34.88-51.3-6.89-10.14-15.3-18.45-24.68-26.25-4.95-4.11-10.67-7.12-16.67-9.29-16.18-5.83-32.84.86-41.5,15.64-17.76,30.3-19.83,79.09-14.48,113.91,2.31,15.07,7.1,28.66,14.74,41.31,9.89,16.37,28.47,21.68,45.68,12.89,8.98-4.59,16.12-11.56,23.55-18.91,12.37-14.27,23-29.37,33.72-45.69l15.08,20.85-20.42,27.33c-6.76,9.05-14.41,16.45-23.09,23.75-20.81,17.5-49.83,22.16-75.01,10Z"/>
        <path d="M575.01,217.96c5.52,8.63,5.16,19.2.02,27.48-4.87,7.84-14.17,12.65-24.3,12.43-9.64-.21-18.45-5.05-23.02-12.57-4.99-8.2-5-18.4-.18-26.86,4.74-8.34,13.8-13.06,22.75-13.38,9.57-.35,19.13,4.15,24.73,12.91Z"/>
      </g>
    </g>
  </g>
</svg>