<?xml version="1.0" encoding="UTF-8"?>
<svg id="Layer_1" xmlns="http://www.w3.org/2000/svg" xmlns:xlink="http://www.w3.org/1999/xlink" version="1.1" viewBox="0 0 1100 500">
  <!-- Generator: Adobe Illustrator 30.3.0, SVG Export Plug-In . SVG Version: 2.1.3 Build 182)  -->
  <defs>
    <style>
      .st0 {
        fill: none;
      }

      .st1 {
        clip-path: url(#clippath-3);
      }

      .st2 {
        clip-path: url(#clippath-2);
      }

      .st3 {
        fill: #2f6bff;
      }
    </style>
    <clipPath id="clippath-2">
      <rect class="st0" x="446.91" y="46.86" width="182.43" height="330.35"/>
    </clipPath>
    <clipPath id="clippath-3">
      <rect class="st0" x="270.53" y="51.09" width="182.3" height="318.49"/>
    </clipPath>
  </defs>
  <g>
    <path d="M920.86,345.84c-12,0-24.16-2.68-35.15-7.75-17.94-8.27-29.37-25.15-30.58-45.13l-.19-3.18h.1c-.29-29.47,20.42-53.32,53.6-61.25,10.15-2.43,19.35-3.62,28.14-3.66l40.59-.17c.33-23.99-3.57-46.59-29.64-53.51-4.69-1.14-9.62-1.73-14.6-1.73-11.74,0-23.71,3.24-34.63,9.37l-20.89,14.4-9.78-22.19,2.03-1.41c18.79-13.09,41.58-20.31,64.17-20.31,10.11,0,20.11,1.41,29.72,4.2,16.29,4.72,28.53,14.09,35.42,27.1,6.05,11.43,9.13,23.12,9.15,34.76l.23,110.83,1.92,14.96-30.76-.04-.85-23.46c-10.04,12.69-21.54,20.84-34.96,24.84-7.43,2.21-15.18,3.33-23.03,3.33ZM939.05,244.46c-8.86.04-17.93,1.97-26.96,5.75-16.77,7.15-26.2,23.2-24.59,41.88,1.28,14.85,10.25,25.89,24,29.52,4.86,1.29,9.88,1.94,14.92,1.94,18.26,0,34.47-8.45,43.42-22.62,5.14-9.81,7.45-17.74,7.48-25.72l.14-30.91-38.41.18Z"/>
    <path d="M670.53,430.93c-4.17,0-8.6-.51-13.19-1.5l-2.58-.56,1.91-21.6,3.32.71c2.37.51,4.73.77,7.02.77,9.25,0,17.05-4.18,21.98-11.76,6.17-9.51,11.62-20.12,17.15-33.38l10.78-25.9-63.81-149.89-14.02-33.09,33.36.05,30.97,73.05,29.47,70.97,49.84-125.24,6.66-18.88,28.99.25-61.54,147.4-34.5,83.29c-8.77,21.13-22.58,45.34-51.82,45.34Z"/>
    <path d="M182.36,345.95c-12.05,0-23.98-2.23-35.46-6.62-23.8-9.09-41.2-27.02-50.32-51.83-8.25-22.44-8.88-48.47-1.79-73.31,4.22-14.8,11.85-27.99,22.66-39.22,15.62-16.21,39.64-25.51,65.91-25.51,13.41,0,26.63,2.52,38.23,7.28,8.16,3.32,15.46,7.61,22.95,13.5l1.99,1.56-12.1,22.47-2.85-2.97c-6.25-6.51-11.95-11.56-19.46-15.07-9.34-4.36-19.38-6.67-29.02-6.67-21.87,0-40.16,11.17-50.19,30.64-14.44,28.01-14.37,66.36.16,93.27l.64,1.19c10.74,19.01,27.86,29.05,49.6,29.05,7.15,0,14.73-1.1,22.54-3.26,10.76-3.59,18.86-9.15,26.28-18l2.73-3.26,12.48,21.19-1.85,1.64c-17.47,15.44-39.88,23.94-63.11,23.94Z"/>
  </g>
  <g>
    <g class="st2">
      <g>
        <path class="st3" d="M349.29,347.02c-14.79,0-29.38-3.87-42.19-11.2-15.31-8.75-27.45-22.96-35.11-41.09-12.96-30.68-12.86-65.79.27-96.33,9.01-20.98,23.65-36.5,42.33-44.88,10.89-4.89,22.49-7.37,34.46-7.37,20.32,0,40.43,7.3,56.62,20.55,11.64,9.53,20.4,18.98,27.58,29.74l.06.09c9.12,14.79,18.73,29.41,28.57,43.45,2.28,3.25,4.51,6.4,6.64,9.35l10.58,15.57c6.28,9.24,12.57,18.48,18.85,27.72,4.99,7.34,11.42,14.17,20.23,21.49,3.62,3.01,8.04,5.47,13.15,7.3,2.93,1.05,5.92,1.59,8.91,1.59,9.12,0,17.52-5.03,22.45-13.46,14.38-24.53,16.3-64.89,11.83-94.01-1.92-12.47-5.85-23.49-12.02-33.7-4.97-8.24-12.92-12.96-21.79-12.96-4.29,0-8.58,1.08-12.76,3.22-7.29,3.73-13.25,9.62-19.01,15.32-11.2,12.92-20.49,26.5-28.09,38.09l-2.39,3.64-16.54-22.88,18.52-24.79c5.23-7,11.38-13.32,19.92-20.51,11.39-9.58,25.67-14.85,40.21-14.85,8.93,0,17.56,1.94,25.68,5.76h0l.56.26c24.09,11.64,33.97,41.56,37.72,58.36,7.55,33.86,4.18,81.88-20.4,112.86-11.24,14.17-27.15,21.97-44.82,21.97-15.44,0-31.15-6.03-44.23-16.98-10.43-8.73-19.01-18.29-26.23-29.24l-31.63-47.94-27.52-40.67c-6.93-10.24-15.23-19.28-25.36-27.65-10.68-8.81-23.56-13.67-36.27-13.67-16.33,0-30.63,8.03-39.24,22.02-7.33,11.91-11.87,25.32-13.51,39.85-3.37,29.87,3.31,58.36,17.88,76.2,9.15,11.2,21.98,17.37,36.12,17.37s29.5-6.5,41.04-17.83c12.2-11.67,22.07-24.6,30.93-36.84l2.27-3.13,17.58,21.19-2.12,2.61c-9.08,11.18-17.66,21.74-28.12,31.63-16.92,15.98-38.79,24.79-61.58,24.79Z"/>
        <path class="st3" d="M527.68,125.33c-9.18,0-17.59-4.59-22.5-12.27-5.13-8.03-5.15-18.12-.04-26.35,4.55-7.34,13.15-11.89,22.44-11.89.21,0,.43,0,.64,0,9.11.2,17.5,4.81,21.9,12.03,4.72,7.75,4.8,17.59.19,25.67-4.3,7.56-12.6,12.46-21.67,12.78-.32.01-.65.02-.97.02Z"/>
      </g>
    </g>
    <g class="st1">
      <g>
        <path class="st3" d="M359.12,345.9c-8.9,0-17.51-1.93-25.6-5.73h0l-.64-.3c-24.09-11.64-33.97-41.56-37.72-58.36-7.55-33.86-4.18-81.88,20.4-112.86,11.24-14.17,27.15-21.97,44.82-21.97,15.44,0,31.15,6.03,44.23,16.98,10.43,8.72,19.01,18.29,26.23,29.24l31.63,47.94,27.52,40.67c6.93,10.24,15.23,19.28,25.36,27.65,10.68,8.81,23.56,13.67,36.27,13.67,16.33,0,30.63-8.03,39.24-22.02,7.33-11.92,11.87-25.32,13.51-39.85,3.38-29.87-3.31-58.36-17.88-76.19-9.15-11.2-21.98-17.37-36.12-17.37s-29.5,6.5-41.04,17.83c-12.2,11.67-22.07,24.6-30.93,36.84l-2.27,3.13-17.58-21.19,2.11-2.6c9.08-11.19,17.66-21.75,28.13-31.65,16.92-15.99,38.79-24.79,61.58-24.79,14.79,0,29.38,3.87,42.19,11.2,15.31,8.75,27.45,22.96,35.11,41.09,12.96,30.68,12.86,65.79-.27,96.33-9.01,20.98-23.65,36.5-42.33,44.88-10.89,4.89-22.49,7.37-34.46,7.37-20.32,0-40.43-7.3-56.62-20.55-11.64-9.53-20.4-18.98-27.58-29.74-3-4.63-6.01-9.22-9.03-13.84-8.72-13.26-17.56-26.42-26.26-39.11l-11.21-16.49c-6.06-8.92-12.12-17.83-18.19-26.74-4.99-7.34-11.42-14.16-20.23-21.49-3.62-3.01-8.04-5.47-13.15-7.3-2.93-1.05-5.92-1.59-8.91-1.59-9.12,0-17.52,5.03-22.45,13.46-14.38,24.53-16.3,64.89-11.82,94.01,1.91,12.47,5.85,23.49,12.02,33.7,4.98,8.24,12.92,12.96,21.79,12.96,4.29,0,8.58-1.08,12.76-3.22,7.29-3.73,13.25-9.62,19.01-15.32,11.2-12.92,20.49-26.5,28.09-38.08l2.39-3.64,16.54,22.88-18.52,24.79c-5.23,6.99-11.38,13.32-19.92,20.51-11.39,9.58-25.67,14.85-40.21,14.85Z"/>
        <path class="st3" d="M373.67,124.81c-9.11-.2-17.5-4.81-21.9-12.03-4.72-7.75-4.8-17.59-.19-25.67,4.3-7.56,12.6-12.46,21.67-12.78.32-.01.65-.02.97-.02,9.18,0,17.59,4.59,22.5,12.27,5.13,8.03,5.15,18.12.04,26.35-4.55,7.34-13.15,11.89-22.44,11.89-.21,0-.43,0-.64,0Z"/>
      </g>
    </g>
  </g>
</svg>