<?xml version="1.0" encoding="UTF-8"?>
<svg id="Layer_1" xmlns="http://www.w3.org/2000/svg" xmlns:xlink="http://www.w3.org/1999/xlink" version="1.1" viewBox="0 0 1280 1024">
  <!-- Generator: Adobe Illustrator 30.3.0, SVG Export Plug-In . SVG Version: 2.1.3 Build 182)  -->
  <defs>
    <style>
      .st0 {
        fill: none;
      }

      .st1 {
        clip-path: url(#clippath-3);
      }

      .st2 {
        clip-path: url(#clippath-2);
      }
    </style>
    <clipPath id="clippath-2">
      <rect class="st0" x="660.47" y="252.77" width="280.43" height="522.03"/>
    </clipPath>
    <clipPath id="clippath-3">
      <rect class="st0" x="339.11" y="247.63" width="321.36" height="528.74"/>
    </clipPath>
  </defs>
  <g class="st2">
    <g>
      <path d="M450.27,768.4c-27.69,0-55-7.25-78.99-20.96-28.64-16.38-51.36-42.98-65.69-76.93-24.38-57.72-24.2-123.8.5-181.28,16.9-39.32,44.29-68.39,79.21-84.05,20.38-9.15,42.08-13.78,64.49-13.78,38.06,0,75.74,13.68,106.09,38.51,21.94,17.95,38.45,35.75,51.98,56.03l.06.09c17.33,28.11,35.66,55.99,54.48,82.86,4.02,5.75,8.16,11.58,12.65,17.82l56,82.36c9.65,14.19,22.06,27.37,39.03,41.48,7.12,5.93,15.82,10.77,25.84,14.38,5.86,2.11,11.88,3.18,17.87,3.18,18.34,0,35.2-10.08,45.1-26.97,27.7-47.28,31.44-124.85,22.85-180.76-3.69-24.06-11.29-45.37-23.24-65.16-9.97-16.51-25.94-25.98-43.81-25.98-8.6,0-17.19,2.16-25.54,6.43-14.3,7.3-25.81,18.69-36.94,29.72-21.45,24.75-39.22,50.73-53.78,72.89l-2.39,3.64-28.02-38.76,34.07-45.61c9.79-13.11,21.36-25.02,37.51-38.61,21.21-17.83,47.77-27.64,74.81-27.64,16.97,0,33.37,3.77,48.74,11.2l1.69.82v.03c17.65,9.01,32.83,24.36,45.14,45.66,10.14,17.55,18.28,39.25,23.53,62.75,7.83,35.07,8.98,74.46,3.22,110.91-6.36,40.27-20.72,75.43-41.54,101.68-20.87,26.31-50.42,40.8-83.21,40.8-28.76,0-58.05-11.26-82.46-31.69-19.66-16.46-35.83-34.48-49.42-55.08l-60.22-91.28-52.41-77.46c-13.34-19.71-29.3-37.11-48.81-53.2-20.83-17.18-45.96-26.64-70.78-26.64-32.05,0-60.12,15.75-77.01,43.22-14.16,23.01-22.94,48.91-26.1,76.98-3.01,26.63-1.88,53.59,3.27,77.96,5.81,27.51,16.36,50.76,31.36,69.12,17.95,21.97,43.12,34.07,70.88,34.07s57.55-12.66,80.03-34.72c23.4-22.38,42.27-47.09,59.18-70.48l2.27-3.14,29.82,35.94-2.63,3.24c-17.23,21.22-33.5,41.26-53.3,59.96-31.71,29.96-72.68,46.45-115.37,46.46Z"/>
      <path d="M789.87,346.32c-16.52,0-31.67-8.27-40.53-22.11l-.47-.74v-.04c-8.73-14.27-8.6-32.01.41-46.51,8.18-13.18,23.66-21.36,40.41-21.36.4,0,.79,0,1.18.01,16.43.36,31.54,8.64,39.42,21.6,8.48,13.92,8.61,31.6.33,46.13-7.72,13.59-22.67,22.39-39,22.98-.59.02-1.18.03-1.77.03Z"/>
    </g>
  </g>
  <g class="st1">
    <g>
      <path d="M468.91,766.24c-16.97,0-33.37-3.77-48.74-11.2l-1.79-.87v-.03c-17.61-9.01-32.75-24.35-45.04-45.61-10.14-17.55-18.28-39.25-23.53-62.75-7.83-35.07-8.98-74.46-3.22-110.91,6.36-40.27,20.72-75.43,41.54-101.68,20.87-26.31,50.41-40.8,83.2-40.8,28.76,0,58.05,11.26,82.46,31.69,19.67,16.46,35.83,34.48,49.42,55.08l60.22,91.28,52.41,77.46c13.34,19.71,29.3,37.11,48.81,53.2,20.83,17.18,45.96,26.64,70.78,26.64,32.05,0,60.12-15.75,77.01-43.22,14.16-23.01,22.94-48.91,26.1-76.98,3.01-26.63,1.88-53.59-3.27-77.96-5.81-27.51-16.36-50.77-31.36-69.13-17.95-21.97-43.12-34.07-70.88-34.07s-57.55,12.65-80.03,34.72c-23.4,22.38-42.27,47.09-59.18,70.48l-2.27,3.14-29.82-35.94,2.63-3.25c17.23-21.22,33.5-41.26,53.29-59.96,31.71-29.96,72.68-46.46,115.37-46.46,27.69,0,55.01,7.25,78.99,20.96,28.64,16.38,51.36,42.98,65.69,76.93,24.38,57.73,24.2,123.8-.5,181.28-16.9,39.32-44.29,68.39-79.21,84.05-20.38,9.15-42.08,13.78-64.49,13.78-38.06,0-75.74-13.68-106.09-38.51-21.94-17.95-38.45-35.75-51.98-56.03-5.48-8.46-11.09-17.06-17.19-26.33-16.31-24.8-33.15-49.86-50.04-74.5l-55.96-82.3c-9.65-14.19-22.05-27.37-39.03-41.48-7.14-5.94-15.84-10.78-25.84-14.39-5.86-2.11-11.88-3.18-17.87-3.18-18.34,0-35.2,10.08-45.1,26.97-27.7,47.28-31.44,124.85-22.85,180.76,3.69,24.06,11.29,45.37,23.24,65.17,9.97,16.51,25.94,25.97,43.81,25.97,8.6,0,17.19-2.16,25.54-6.43,14.3-7.31,25.81-18.69,36.94-29.72,21.44-24.74,39.22-50.73,53.77-72.89l2.39-3.64,28.02,38.76-34.07,45.61c-9.79,13.11-21.36,25.02-37.51,38.61-21.21,17.83-47.77,27.64-74.81,27.64Z"/>
      <path d="M497.92,345.31c-.4,0-.79,0-1.19-.01-16.43-.36-31.54-8.64-39.42-21.6-8.48-13.92-8.61-31.6-.33-46.13,7.72-13.59,22.67-22.39,39-22.98.59-.02,1.18-.03,1.77-.03,16.52,0,31.67,8.27,40.53,22.11l.45.71v.04c8.75,14.27,8.62,32.03-.39,46.55-8.18,13.18-23.66,21.36-40.41,21.36Z"/>
    </g>
  </g>
</svg>