<?xml version="1.0" encoding="UTF-8"?>
<svg id="Layer_1" data-name="Layer 1" xmlns="http://www.w3.org/2000/svg" xmlns:xlink="http://www.w3.org/1999/xlink" viewBox="0 0 1280 1024">
  <defs>
    <style>
      .cls-1 {
        fill: none;
      }

      .cls-2 {
        clip-path: url(#clippath-1);
      }

      .cls-3 {
        clip-path: url(#clippath);
      }
    </style>
    <clipPath id="clippath">
      <rect class="cls-1" x="538.18" y="254.94" width="166.08" height="309.16"/>
    </clipPath>
    <clipPath id="clippath-1">
      <rect class="cls-1" x="347.87" y="251.89" width="190.32" height="313.13"/>
    </clipPath>
  </defs>
  <g>
    <path d="M271.18,741.32h14.86c6.48,0,9.79,5.28,9.79,9.36v.73c0,3.01-1.72,6.61-5.15,8.37-1.46.77-3.01,1.03-4.68,1.03h-10.31v10.69h-4.51v-30.18ZM286.08,756.65c3.22,0,5.15-2.75,5.15-5.2v-.77c0-2.45-1.93-5.2-5.15-5.2h-10.35v11.16h10.35Z"/>
    <path d="M302.88,741.32h4.68v12.19h15.8v-12.19h4.72v30.31h-4.72v-13.7h-15.8v13.7h-4.68v-30.31Z"/>
    <path d="M335.47,756.82v-.82c0-6.87,5.32-15.29,15.93-15.29,8.54,0,15.54,6.78,15.54,15.29v.82c0,6.91-5.28,15.29-15.93,15.29-8.5,0-15.54-6.83-15.54-15.29ZM351.41,767.73c6.05,0,10.82-4.98,10.82-10.91v-.82c0-5.2-3.91-10.86-11.21-10.86-6.1,0-10.82,4.89-10.82,10.86v.82c0,5.2,3.95,10.91,11.21,10.91Z"/>
    <path d="M382.11,745.48h-11.72v-4.16h27.91v4.16h-11.68v26.15h-4.51v-26.15Z"/>
    <path d="M401.7,756.82v-.82c0-6.87,5.32-15.29,15.93-15.29,8.54,0,15.54,6.78,15.54,15.29v.82c0,6.91-5.28,15.29-15.93,15.29-8.5,0-15.54-6.83-15.54-15.29ZM417.63,767.73c6.05,0,10.82-4.98,10.82-10.91v-.82c0-5.2-3.91-10.86-11.21-10.86-6.1,0-10.82,4.89-10.82,10.86v.82c0,5.2,3.95,10.91,11.21,10.91Z"/>
    <path d="M465.95,754.5c0,1.02-.35,1.92-1.06,2.69-.71.78-1.68,1.16-2.93,1.16-1.05,0-1.87-.34-2.45-1.01s-.88-1.48-.88-2.41c0-1.02.35-1.9,1.06-2.65s1.69-1.12,2.95-1.12c1.06,0,1.88.33,2.45.97.57.65.86,1.44.86,2.36Z"/>
    <path d="M496.32,763.56l.13.34c.86,2.79,3.39,4.6,7.21,4.6,4.29,0,7.17-2.1,7.17-5.37,0-1.5-.69-3-2.32-3.56-.82-.3-1.76-.47-2.58-.73l-6.53-1.72c-.34-.09-.73-.17-1.12-.26-3.69-.73-6.36-3.44-6.36-7.34,0-4.77,4.25-8.8,10.86-8.8,4.94,0,8.89,1.63,10.78,5.2.47.9.86,1.93.94,2.92l.04.47h-4.9l-.09-.34c-.69-2.75-2.96-4.38-6.7-4.38s-6.44,2.1-6.44,5.02c0,1.46.6,2.84,2.23,3.39.3.13.69.21,1.03.3.39.13.77.21,1.12.3l5.8,1.55c.9.26,2.58.6,3.39.9,3.78,1.37,5.2,4.47,5.2,7.3,0,4.94-5.07,8.76-11.51,8.76-5.45,0-10.99-2.28-12.28-7.99l-.09-.56h4.98Z"/>
    <path d="M522.73,741.32h4.68v12.19h15.8v-12.19h4.72v30.31h-4.72v-13.7h-15.8v13.7h-4.68v-30.31Z"/>
    <path d="M566.02,741.32h5.8l11.34,30.31h-4.9l-3.43-9.27h-11.77l-3.52,9.27h-5.24l11.72-30.31ZM573.23,758.15l-4.47-12.11-4.17,12.11h8.63Z"/>
    <path d="M589.64,741.32h14.86c6.48,0,9.79,5.28,9.79,9.36v.73c0,3.48-2.27,7.69-6.96,9.02l8.2,11.21h-5.58l-7.81-10.82h-7.99v10.69h-4.51v-30.18ZM604.54,756.65c3.22,0,5.15-2.75,5.15-5.2v-.77c0-2.45-1.93-5.2-5.15-5.2h-10.39v11.16h10.39Z"/>
    <path d="M622.67,741.32h4.68v30.31h-4.68v-30.31Z"/>
    <path d="M636.03,741.32h4.38l17,22.8v-22.8h4.55v30.31h-4.68l-16.74-22.46v22.46h-4.51v-30.31Z"/>
    <path d="M687.39,756.01h11.34v15.63h-4.68v-2.27c-2.36,1.72-5.32,2.75-8.72,2.75-8.72,0-16.02-6.96-16.02-15.67s7.26-15.72,16.02-15.72h.13c6.66,0,11.38,4.25,13.23,8.55l.21.43-4.72,1.33-.17-.43c-1.46-2.96-4.51-5.28-8.67-5.28-6.27,0-11.12,4.98-11.12,11.12,0,5.11,3.95,11.12,11.25,11.12,3.35,0,6.31-.94,8.03-3.09.13-.21.3-.34.43-.52.09-.09.13-.17.13-.26v-3.26h-6.66v-4.42Z"/>
    <path d="M732.19,754.5c0,1.02-.35,1.92-1.06,2.69-.71.78-1.68,1.16-2.93,1.16-1.05,0-1.87-.34-2.45-1.01s-.88-1.48-.88-2.41c0-1.02.35-1.9,1.06-2.65.7-.75,1.69-1.12,2.95-1.12,1.06,0,1.88.33,2.45.97.57.65.86,1.44.86,2.36Z"/>
    <path d="M758.9,741.32h23.96v4.16h-19.45v8.24h14.99v4.21h-14.99v13.7h-4.51v-30.31Z"/>
    <path d="M789.26,741.32h4.51v26.11h16.06l-.04,4.21h-20.52v-30.31Z"/>
    <path d="M826.07,741.32h5.8l11.34,30.31h-4.9l-3.43-9.27h-11.77l-3.52,9.27h-5.24l11.72-30.31ZM833.29,758.15l-4.47-12.11-4.17,12.11h8.63Z"/>
    <path d="M854.72,745.48h-11.72v-4.16h27.91v4.16h-11.68v26.15h-4.51v-26.15Z"/>
    <path d="M877.27,741.32h23.96v4.16h-19.45v8.24h14.99v4.21h-14.99v13.7h-4.51v-30.31Z"/>
    <path d="M904.62,756.82v-.82c0-6.87,5.32-15.29,15.93-15.29,8.55,0,15.54,6.78,15.54,15.29v.82c0,6.91-5.28,15.29-15.93,15.29-8.5,0-15.54-6.83-15.54-15.29ZM920.55,767.73c6.05,0,10.82-4.98,10.82-10.91v-.82c0-5.2-3.91-10.86-11.21-10.86-6.1,0-10.82,4.89-10.82,10.86v.82c0,5.2,3.95,10.91,11.21,10.91Z"/>
    <path d="M943.62,741.32h14.86c6.48,0,9.79,5.28,9.79,9.36v.73c0,3.48-2.27,7.69-6.96,9.02l8.2,11.21h-5.58l-7.81-10.82h-7.99v10.69h-4.51v-30.18ZM958.52,756.65c3.22,0,5.15-2.75,5.15-5.2v-.77c0-2.45-1.93-5.2-5.15-5.2h-10.39v11.16h10.39Z"/>
    <path d="M976.65,741.32h6.61l9.45,22.54,9.45-22.54h6.66v30.31h-4.55v-23.36l-9.62,23.36h-3.86l-9.62-23.57v23.57h-4.51v-30.31Z"/>
  </g>
  <g>
    <path d="M987.46,500.74c-2.2-36.42,24.31-61.18,57.72-69.15,10.09-2.41,20.4-3.99,30.96-4.04l49.08-.2c.83-31.04-4.25-58.57-35.87-66.98-19.63-4.78-40.37-1.02-58.17,9.01l-20.32,14.01-8.25-18.72c29.86-20.8,67.89-27.86,102.99-17.69,16.17,4.69,30.04,14.06,37.89,28.89,6.07,11.46,9.89,24.12,9.92,37.61l.26,125.18,1.7,13.26-27.58-.03-1.2-33.01c-11,16.47-24.82,29.16-43.41,34.7-20.93,6.24-43.54,4.28-63.22-4.81-19.17-8.85-31.22-26.54-32.52-48.03ZM1116.39,511.5c5-9.53,8.78-19.56,8.83-30.57l.17-38.26-46.72.21c-11.05.05-21.79,2.6-31.69,6.74-20.7,8.83-31.7,28.44-29.79,50.63,1.52,17.67,12.07,31.64,29.56,36.26,25.95,6.85,55.07-1.68,69.65-25.01Z"/>
    <path d="M831.26,603.98c-13.56,32.75-32.61,55.56-69.5,47.53l1.56-17.57c14.59,3.13,28.25-1.57,36.24-13.86,7.86-12.1,14.03-24.78,19.62-38.18l12.71-30.52-72.5-170.32-13.82-32.6,30.26.04,34.05,80.31,36.41,87.68,59.3-149,6.73-19.07,25.25.22-67.46,161.56-38.85,93.79Z"/>
    <path d="M166.88,503.12c17.94,33.22,50.6,41.92,86.06,32.06,12.44-4.14,22.17-10.53,31.24-21.37l10.22,17.36c-29.83,26.36-70.76,33.03-107.71,18.91-55.23-21.11-71.93-83.77-56.72-137.02,4.66-16.31,13.1-30.73,24.74-42.8,27.58-28.63,76.98-34.85,113.7-19.78,9.26,3.77,17.1,8.48,25.08,14.75l-10.09,18.73c-6.93-7.21-13.81-13.45-22.96-17.72-35.58-16.61-75.6-6.69-93.76,28.55-16.56,32.13-16.83,76.78.21,108.33Z"/>
    <g>
      <g class="cls-3">
        <g>
          <path d="M657.44,345.2c23.06,11.14,35.29,39.24,40.71,63.49,8.96,40.13,3.52,91.79-22.35,124.41-24.13,30.42-65.41,30.38-95.58,5.13-11.24-9.41-20.8-19.92-28.93-32.23l-35.66-54.06-31.05-45.89c-8.24-12.18-17.96-22.57-29.25-31.88-29.32-24.18-70.54-21.66-90.16,10.26-8.7,14.15-13.82,29.57-15.71,46.32-3.42,30.24,1.69,64.92,20.9,88.43,24.1,29.49,65.18,26.08,91.99-.24,13.27-12.68,24.26-26.78,35.24-41.96l15.27,18.4c-10.24,12.61-20.16,24.9-32.05,36.13-30.55,28.86-76.2,35.89-113,14.85-17.43-9.96-30.26-26.03-38.15-44.71-14.22-33.67-14.1-72.47.29-105.97,9.25-21.53,24.71-39.3,46.01-48.86,33.17-14.88,71.28-8.42,99.17,14.4,11.82,9.67,21.94,20.06,30.43,32.79,9.99,16.21,20.74,32.62,32.32,49.16,2.5,3.56,5,7.09,7.5,10.57,11.05,16.25,22.09,32.49,33.14,48.74,6.55,9.63,14.53,17.52,23.44,24.93,4.7,3.91,10.14,6.77,15.84,8.82,15.37,5.54,31.19-.82,39.42-14.86,16.87-28.78,18.84-75.14,13.76-108.22-2.2-14.32-6.74-27.23-14-39.24-9.39-15.55-27.04-20.6-43.4-12.24-8.53,4.36-15.32,10.98-22.37,17.97-11.76,13.56-21.85,27.9-32.03,43.4l-14.32-19.81,19.4-25.96c6.42-8.6,13.68-15.63,21.94-22.57,19.77-16.62,47.34-21.06,71.26-9.5Z"/>
          <path d="M592.31,296.28c-5.24-8.2-4.9-18.24-.02-26.1,4.63-7.45,13.46-12.02,23.08-11.81,9.15.2,17.52,4.8,21.87,11.94,4.74,7.79,4.75,17.48.17,25.52-4.5,7.92-13.11,12.41-21.62,12.71-9.1.33-18.17-3.95-23.49-12.26Z"/>
        </g>
      </g>
      <g class="cls-2">
        <g>
          <path d="M396.64,550.79c-23.06-11.14-35.29-39.24-40.71-63.49-8.96-40.13-3.52-91.79,22.35-124.41,24.13-30.42,65.41-30.38,95.58-5.13,11.24,9.41,20.8,19.92,28.93,32.23l35.66,54.06,31.05,45.89c8.24,12.18,17.96,22.57,29.25,31.88,29.32,24.18,70.54,21.66,90.16-10.26,8.7-14.15,13.82-29.57,15.71-46.32,3.42-30.24-1.69-64.92-20.9-88.43-24.1-29.49-65.18-26.08-91.99.24-13.27,12.68-24.26,26.78-35.24,41.96l-15.27-18.4c10.24-12.61,20.16-24.9,32.05-36.13,30.55-28.86,76.2-35.89,113-14.85,17.43,9.96,30.26,26.03,38.15,44.71,14.22,33.67,14.1,72.47-.29,105.97-9.25,21.53-24.71,39.3-46.01,48.86-33.17,14.88-71.28,8.42-99.17-14.4-11.82-9.67-21.94-20.06-30.43-32.79-3.36-5.18-6.75-10.38-10.17-15.58-9.86-14.99-19.75-29.71-29.66-44.15-11.05-16.25-22.09-32.49-33.14-48.74-6.55-9.63-14.53-17.52-23.44-24.93-4.7-3.91-10.14-6.77-15.84-8.82-15.37-5.54-31.19.82-39.42,14.86-16.87,28.78-18.84,75.14-13.76,108.22,2.2,14.32,6.74,27.23,14,39.24,9.39,15.55,27.04,20.6,43.4,12.24,8.53-4.36,15.32-10.98,22.37-17.97,11.76-13.56,21.85-27.9,32.03-43.4l14.32,19.81-19.4,25.96c-6.42,8.6-13.68,15.63-21.94,22.57-19.77,16.62-47.34,21.06-71.26,9.5Z"/>
          <path d="M464.32,270.05c5.24,8.2,4.9,18.24.02,26.1-4.63,7.45-13.46,12.02-23.08,11.81-9.15-.2-17.52-4.8-21.87-11.94-4.74-7.79-4.75-17.48-.17-25.52,4.5-7.92,13.11-12.41,21.62-12.71,9.1-.33,18.17,3.95,23.49,12.26Z"/>
        </g>
      </g>
    </g>
  </g>
</svg>