<?xml version="1.0" encoding="UTF-8"?>
<svg id="Layer_1" data-name="Layer 1" xmlns="http://www.w3.org/2000/svg" xmlns:xlink="http://www.w3.org/1999/xlink" viewBox="0 0 1280 1024">
  <defs>
    <style>
      .cls-1 {
        fill: none;
      }

      .cls-2 {
        clip-path: url(#clippath-1);
      }

      .cls-3 {
        clip-path: url(#clippath);
      }
    </style>
    <clipPath id="clippath">
      <rect class="cls-1" x="650.59" y="581.6" width="145.1" height="270.11"/>
    </clipPath>
    <clipPath id="clippath-1">
      <rect class="cls-1" x="484.31" y="578.94" width="166.28" height="273.58"/>
    </clipPath>
  </defs>
  <g>
    <path d="M533.7,319.81l4.11,10.85c-12.08,5.53-26.89,8.29-44.43,8.29-22.1,0-40.5-7.91-55.2-23.75-14.7-15.83-22.04-35.94-22.04-60.32s7.35-44.37,22.04-59.98c14.7-15.61,33.09-23.41,55.2-23.41,17.54,0,32.35,2.77,44.43,8.29l-4.11,10.85c-12.35-5.24-25.6-7.86-39.77-7.86-17.6,0-32.57,6.53-44.91,19.57-13.03,13.73-19.54,31.36-19.54,52.88s6.51,39.15,19.54,52.88c12.34,13.05,27.31,19.57,44.91,19.57,14.17,0,27.43-2.61,39.77-7.86Z"/>
    <path d="M581.9,185.15c0,3.19-1.02,5.76-3.07,7.69-2.05,1.94-4.68,2.9-7.86,2.9s-5.76-.97-7.69-2.9c-1.93-1.93-2.9-4.5-2.9-7.69s.97-5.81,2.9-7.86c1.93-2.05,4.5-3.08,7.69-3.08s5.81,1.03,7.86,3.08c2.05,2.05,3.07,4.67,3.07,7.86ZM578.14,336.56h-13.33v-116.2h13.33v116.2Z"/>
    <path d="M630.77,185.15c0,3.19-1.03,5.76-3.08,7.69-2.05,1.94-4.67,2.9-7.86,2.9s-5.75-.97-7.69-2.9c-1.94-1.93-2.9-4.5-2.9-7.69s.97-5.81,2.9-7.86c1.93-2.05,4.5-3.08,7.69-3.08s5.81,1.03,7.86,3.08c2.05,2.05,3.08,4.67,3.08,7.86ZM627.01,336.56h-13.33v-116.2h13.33v116.2Z"/>
    <path d="M707.67,336.56c-13.45,30.3-31.33,48.07-53.66,53.32l-3.07-10.59c19.36-4.33,34.06-19.82,44.09-46.48,0-.68-.34-2.05-1.03-4.1l-48.19-108.34h14.35l43.4,98.43,40.67-98.43h14.7l-51.27,116.2Z"/>
    <path d="M863.86,336.56l-11.96,2.39-4.78-18.8c-10.48,12.99-24.27,19.48-41.36,19.48-10.03,0-18.68-2.84-25.97-8.51-7.29-5.67-10.93-13.49-10.93-23.47,0-28.81,25.17-43.21,75.53-43.21h2.05v-2.07c0-7.59-1.71-14.26-5.13-20.01-5.24-9.2-14.13-13.8-26.66-13.8-7.98,0-20.28,2.62-36.91,7.86l-1.71-12.3c12.76-4.1,25.97-6.15,39.64-6.15,29.39,0,44.09,16.18,44.09,48.53v41.69c0,9.57,1.37,19.03,4.1,28.37ZM846.43,298.96v-23.24c-42.38,0-63.57,9.8-63.57,29.39,0,7.52,2.27,13.27,6.84,17.26,4.55,3.99,10.25,5.98,17.09,5.98,18,0,30.64-7.63,37.94-22.9,1.14-2.5,1.71-4.67,1.71-6.49Z"/>
  </g>
  <g>
    <g class="cls-3">
      <g>
        <path d="M754.78,660.46c20.15,9.73,30.84,34.28,35.56,55.47,7.83,35.06,3.08,80.2-19.53,108.7-21.08,26.58-57.15,26.55-83.5,4.49-9.82-8.22-18.17-17.4-25.27-28.16l-31.16-47.23-27.13-40.1c-7.2-10.64-15.69-19.72-25.55-27.85-25.62-21.13-61.63-18.92-78.77,8.96-7.6,12.36-12.07,25.83-13.73,40.47-2.98,26.42,1.47,56.72,18.26,77.26,21.05,25.76,56.95,22.78,80.37-.21,11.59-11.08,21.19-23.39,30.79-36.66l13.34,16.08c-8.94,11.02-17.61,21.75-28,31.56-26.69,25.21-66.58,31.35-98.73,12.97-15.23-8.71-26.44-22.74-33.33-39.06-12.43-29.41-12.32-63.32.26-92.58,8.08-18.81,21.59-34.34,40.19-42.68,28.98-13,62.28-7.36,86.64,12.58,10.33,8.45,19.17,17.52,26.58,28.65,8.73,14.16,18.12,28.5,28.24,42.95,2.18,3.11,4.37,6.19,6.56,9.24,9.65,14.19,19.3,28.39,28.95,42.58,5.72,8.41,12.7,15.31,20.48,21.78,4.11,3.41,8.86,5.91,13.84,7.71,13.43,4.84,27.25-.71,34.44-12.98,14.74-25.14,16.46-65.64,12.02-94.55-1.92-12.51-5.89-23.79-12.23-34.28-8.21-13.59-23.63-17.99-37.92-10.69-7.46,3.81-13.38,9.59-19.54,15.7-10.27,11.85-19.09,24.38-27.99,37.92l-12.51-17.31,16.95-22.68c5.61-7.51,11.96-13.66,19.16-19.72,17.27-14.52,41.36-18.4,62.26-8.3Z"/>
        <path d="M697.88,617.71c-4.58-7.16-4.28-15.94-.02-22.8,4.04-6.51,11.76-10.5,20.17-10.31,8,.18,15.31,4.19,19.11,10.43,4.14,6.81,4.15,15.27.15,22.29-3.93,6.92-11.45,10.84-18.89,11.11-7.95.29-15.88-3.45-20.52-10.71Z"/>
      </g>
    </g>
    <g class="cls-2">
      <g>
        <path d="M526.92,840.08c-20.15-9.73-30.84-34.28-35.56-55.47-7.83-35.06-3.08-80.2,19.53-108.7,21.08-26.58,57.15-26.55,83.5-4.49,9.82,8.22,18.17,17.4,25.27,28.16l31.16,47.23,27.13,40.1c7.2,10.64,15.69,19.72,25.55,27.85,25.62,21.13,61.63,18.92,78.77-8.96,7.6-12.36,12.07-25.83,13.73-40.47,2.98-26.42-1.47-56.72-18.26-77.26-21.05-25.76-56.95-22.78-80.37.21-11.59,11.08-21.19,23.39-30.79,36.66l-13.34-16.08c8.94-11.02,17.61-21.75,28-31.56,26.69-25.21,66.58-31.35,98.73-12.97,15.23,8.71,26.44,22.74,33.33,39.06,12.43,29.41,12.32,63.32-.26,92.58-8.08,18.81-21.59,34.34-40.19,42.68-28.98,13-62.28,7.36-86.64-12.58-10.33-8.45-19.17-17.52-26.58-28.65-2.93-4.53-5.9-9.07-8.89-13.61-8.61-13.1-17.25-25.95-25.91-38.57-9.65-14.19-19.3-28.39-28.95-42.58-5.72-8.41-12.7-15.31-20.48-21.78-4.11-3.41-8.86-5.91-13.84-7.71-13.43-4.84-27.25.71-34.44,12.98-14.74,25.14-16.46,65.64-12.02,94.55,1.92,12.51,5.89,23.79,12.23,34.28,8.21,13.59,23.63,17.99,37.92,10.69,7.46-3.81,13.38-9.59,19.54-15.7,10.27-11.85,19.09-24.38,27.99-37.92l12.51,17.31-16.95,22.68c-5.61,7.51-11.96,13.66-19.16,19.72-17.27,14.52-41.36,18.4-62.26,8.3Z"/>
        <path d="M586.05,594.81c4.58,7.16,4.28,15.94.02,22.8-4.04,6.51-11.76,10.5-20.17,10.31-8-.18-15.31-4.19-19.11-10.43-4.14-6.81-4.15-15.27-.15-22.29,3.93-6.92,11.45-10.84,18.89-11.11,7.95-.29,15.88,3.45,20.52,10.71Z"/>
      </g>
    </g>
  </g>
</svg>