<?xml version="1.0" encoding="UTF-8"?>
<svg id="Layer_1" xmlns="http://www.w3.org/2000/svg" version="1.1" viewBox="0 0 1100 400">
  <!-- Generator: Adobe Illustrator 30.3.0, SVG Export Plug-In . SVG Version: 2.1.3 Build 182)  -->
  <defs>
    <style>
      .st0 {
        fill: #2f6bff;
      }
    </style>
  </defs>
  <g>
    <path d="M637.23,309.38c-16.16,7.09-35.42,10.62-57.77,10.62-21.03,0-37.91-7.47-50.64-22.41-12.73-14.94-19.09-34.47-19.09-58.6s6.19-43.16,18.59-57.78c13.72-15.94,32.87-23.91,57.44-23.91,18.81,0,35.97,3.21,51.47,9.63l-6.64,16.6c-13.28-5.53-28-8.3-44.16-8.3-20.37,0-35.31,7.53-44.82,22.58-7.09,11.07-10.62,25.02-10.62,41.84,0,15.5,3.87,29,11.62,40.51,9.74,14.61,23.46,21.92,41.17,21.92s34.31-3.32,47.81-9.96l5.64,17.27h0Z"/>
    <path d="M687.04,171.59c0,4.43-1.55,8.19-4.65,11.29-3.1,3.1-6.86,4.65-11.29,4.65s-8.19-1.55-11.29-4.65-4.65-6.86-4.65-11.29,1.55-8.19,4.65-11.29c3.1-3.1,6.86-4.65,11.29-4.65s8.19,1.55,11.29,4.65,4.65,6.86,4.65,11.29ZM681.73,317.68h-20.59v-112.89h20.59v112.89Z"/>
    <path d="M741.16,171.59c0,4.43-1.55,8.19-4.65,11.29-3.1,3.1-6.86,4.65-11.29,4.65s-8.19-1.55-11.29-4.65-4.65-6.86-4.65-11.29,1.55-8.19,4.65-11.29,6.86-4.65,11.29-4.65,8.19,1.55,11.29,4.65,4.65,6.86,4.65,11.29ZM735.85,317.68h-20.59v-112.89h20.59v112.89Z"/>
    <path d="M763.41,367.82l-5.31-17.27c19.7-4.43,34.2-18.15,43.5-41.17l-50.14-104.59h22.91l39.18,83.67,37.19-83.67h22.91l-51.8,110.57c-13.95,29.44-33.43,46.93-58.44,52.46h0Z"/>
    <path d="M982.22,316.69l-19.35,3.98-3.27-14.34c-11.33,9.57-24.11,14.34-38.32,14.34-11.34,0-20.78-3.03-28.33-9.09-7.56-6.06-11.45-14.27-11.66-24.63,0-27.99,25.23-42.31,75.7-42.98-2.21-16.82-11.29-25.24-27.23-25.24-11.95,0-25.13,2.77-39.51,8.3l-2.32-18.93c15.05-4.42,29.33-6.64,42.83-6.64,31.21,0,46.82,16.16,46.82,48.48v37.52c0,8.42,1.55,18.15,4.65,29.22h-.01ZM956.98,281.99v-20.08c-36.31.67-54.45,8.37-54.45,23.1,0,11.83,6.57,17.74,19.71,17.74,7.35,0,14.7-1.79,22.05-5.35,8.46-4.24,12.69-9.38,12.69-15.4h0Z"/>
  </g>
  <g>
    <path class="st0" d="M371.61,349.65c-18.05,0-36.42-7.05-51.72-19.86-12.24-10.25-22.31-21.47-30.78-34.31l-14.18-21.5v-54.75l5.46,7.73c2.61,3.72,5.06,7.17,7.48,10.53l9.84,14.47c8.27,12.16,16.54,24.32,24.8,36.48,5.89,8.67,13.49,16.75,23.92,25.42,4.31,3.59,9.57,6.51,15.63,8.7,3.5,1.26,7.09,1.9,10.66,1.9,10.93,0,20.98-6.02,26.89-16.11,16.99-28.99,19.27-76.64,13.98-111.01-2.27-14.76-6.92-27.8-14.22-39.87-5.96-9.86-15.47-15.51-26.11-15.51-5.14,0-10.27,1.29-15.27,3.85-8.65,4.41-15.71,11.38-22.53,18.14-13.14,15.17-24.12,31.21-33.13,44.91l-2.39,3.63-18.8-26,21.56-28.87c6.12-8.2,13.33-15.62,23.37-24.06,13.32-11.19,30.01-17.36,47-17.36,10.66,0,20.97,2.37,30.64,7.03,12.11,5.85,33.92,22.49,44.15,68.35,8.87,39.73,4.92,96.07-23.91,132.41-13.12,16.55-31.7,25.66-52.33,25.66h0Z"/>
    <path class="st0" d="M357.92,90.69c-10.61,0-20.34-5.31-26.02-14.21l-2.95-4.62h.57c-3.39-8.34-2.61-17.85,2.35-25.84,5.27-8.48,15.22-13.75,25.96-13.75.25,0,.5,0,.75,0,10.55.24,20.25,5.57,25.32,13.91,5.45,8.96,5.54,20.33.22,29.69-4.97,8.74-14.57,14.4-25.06,14.78-.38.01-.76.02-1.14.02h0Z"/>
    <path class="st0" d="M159.5,350.33c-10.43,0-20.53-2.27-30.01-6.74l-.64-.3c-12.09-5.84-33.89-22.48-44.12-68.33-8.87-39.73-4.92-96.07,23.91-132.41,13.12-16.54,31.71-25.65,52.34-25.65,18.05,0,36.42,7.05,51.72,19.86,12.24,10.25,22.31,21.47,30.78,34.31l37.45,56.77v55.27l-5.51-8.34c-10.04-15.26-20.39-30.67-30.75-45.78l-10.1-14.86c-8.17-12.01-16.33-24.02-24.49-36.04-5.89-8.67-13.49-16.75-23.92-25.41-4.31-3.59-9.58-6.52-15.63-8.7-3.5-1.26-7.09-1.9-10.66-1.9-10.93,0-20.98,6.02-26.89,16.11-16.99,28.99-19.27,76.64-13.98,111.01,2.27,14.75,6.92,27.8,14.22,39.87,5.96,9.86,15.47,15.51,26.11,15.51,5.14,0,10.27-1.29,15.27-3.85,8.64-4.41,15.7-11.38,22.53-18.14,13.14-15.16,24.12-31.21,33.13-44.91l2.39-3.63,18.8,26-21.56,28.87c-6.13,8.21-13.33,15.62-23.37,24.06-13.32,11.19-30.01,17.36-47,17.36Z"/>
    <path class="st0" d="M176.67,90.08c-10.55-.24-20.25-5.57-25.32-13.91-5.45-8.96-5.54-20.33-.22-29.69,4.97-8.74,14.57-14.4,25.06-14.78.38-.01.76-.02,1.14-.02,10.61,0,20.34,5.31,26.03,14.21l2.95,4.62h-.57c3.39,8.34,2.61,17.85-2.35,25.84-5.27,8.48-15.22,13.75-25.96,13.75,0,0-.5,0-.75,0Z"/>
  </g>
</svg>